<?xml version="1.0" encoding="UTF-8"?><svg id="katman_1" xmlns="http://www.w3.org/2000/svg" viewBox="0 0 1500 1500"><defs><style>.cls-1{fill:#f99d1e;}.cls-2{fill:#1f1b32;}.cls-3{fill:#b5e1e4;}</style></defs><g><circle class="cls-2" cx="750" cy="750" r="700"/><path d="M750,1452.5c-94.84,0-186.84-18.57-273.45-55.21-83.65-35.38-158.78-86.04-223.3-150.55-64.52-64.51-115.17-139.64-150.55-223.3-36.63-86.61-55.21-178.61-55.21-273.45s18.57-186.84,55.21-273.45c35.38-83.65,86.04-158.78,150.55-223.3,64.52-64.52,139.64-115.17,223.3-150.55,86.61-36.63,178.61-55.21,273.45-55.21s186.84,18.57,273.45,55.21c83.65,35.38,158.78,86.04,223.3,150.55,64.52,64.52,115.17,139.64,150.55,223.3,36.63,86.61,55.21,178.61,55.21,273.45s-18.57,186.84-55.21,273.45c-35.38,83.65-86.04,158.78-150.55,223.3-64.51,64.52-139.64,115.17-223.3,150.55-86.61,36.63-178.61,55.21-273.45,55.21Zm0-1400C365.4,52.5,52.5,365.4,52.5,750s312.9,697.5,697.5,697.5,697.5-312.9,697.5-697.5S1134.6,52.5,750,52.5Z"/></g><g><g><rect class="cls-3" x="985.18" y="179.57" width="5" height="93.91"/><rect class="cls-3" x="945.94" y="224.02" width="83.48" height="5"/></g><g><rect class="cls-3" x="566.92" y="264.33" width="5" height="45"/><rect class="cls-3" x="549.42" y="284.33" width="40" height="5"/></g><g><rect class="cls-3" x="400.4" y="204.02" width="5" height="45"/><rect class="cls-3" x="382.9" y="224.02" width="40" height="5"/></g><g><rect class="cls-3" x="251.27" y="440.71" width="5" height="112.5"/><rect class="cls-3" x="203.77" y="494.46" width="100" height="5"/></g><g><rect class="cls-3" x="1219.96" y="691.09" width="5" height="90"/><rect class="cls-3" x="1182.46" y="733.59" width="80" height="5"/></g><g><rect class="cls-3" x="1330.4" y="855.34" width="5" height="52.5"/><rect class="cls-3" x="1309.57" y="879.09" width="46.67" height="5"/></g><g><rect class="cls-3" x="689.37" y="111.59" width="5" height="75"/><rect class="cls-3" x="658.54" y="146.59" width="66.67" height="5"/></g><g><rect class="cls-3" x="849.02" y="279.33" width="5" height="60"/><rect class="cls-3" x="824.86" y="306.83" width="53.33" height="5"/></g><g><rect class="cls-3" x="1194.46" y="1087.5" width="5" height="45"/><rect class="cls-3" x="1176.96" y="1107.5" width="40" height="5"/></g><g><rect class="cls-3" x="288.66" y="1076.25" width="5" height="67.5"/><rect class="cls-3" x="261.16" y="1107.5" width="60" height="5"/></g><g><rect class="cls-3" x="267.79" y="902.88" width="5" height="52.5"/><rect class="cls-3" x="246.96" y="926.63" width="46.67" height="5"/></g><g><rect class="cls-3" x="150.4" y="664.84" width="5" height="52.5"/><rect class="cls-3" x="129.57" y="688.59" width="46.67" height="5"/></g><g><rect class="cls-3" x="1147.79" y="317.69" width="5" height="60"/><rect class="cls-3" x="1123.62" y="345.19" width="53.33" height="5"/></g><g><rect class="cls-3" x="1295.62" y="509.24" width="5" height="45"/><rect class="cls-3" x="1278.12" y="529.24" width="40" height="5"/></g></g><g><g><g><path class="cls-3" d="M1038.26,865.84c-.23-159.13-.46-318.26-.69-477.39-32.31-4.78-88.97-7.89-155.05,17.39-63.56,24.32-108,64.27-132.67,90.14v485.51c21.42-24.94,53.11-55.83,95.98-80,81.16-45.77,155.78-41.19,192.42-35.65Z"/><path d="M747.35,988.24V494.98l.69-.72c39.48-41.41,84.42-71.94,133.58-90.75,50.13-19.18,104.18-25.25,156.31-17.53l2.13,.32,.7,482.46-2.88-.43c-46.1-6.96-116.63-6.48-190.82,35.36-34.82,19.64-66.89,46.37-95.31,79.45l-4.4,5.12Zm5-491.25v477.84c27.7-31.21,58.71-56.6,92.25-75.51,73.91-41.68,144.24-42.99,191.15-36.37l-.69-472.33c-50.62-7.12-103.01-1.06-151.66,17.56-48.18,18.44-92.27,48.32-131.06,88.81Z"/></g><g><path class="cls-3" d="M461.59,865.84c.23-159.13,.46-318.26,.69-477.39,32.31-4.78,88.97-7.89,155.05,17.39,63.56,24.32,108,64.27,132.67,90.14v485.51c-21.42-24.94-53.11-55.83-95.98-80-81.16-45.77-155.78-41.19-192.42-35.65Z"/><path d="M752.5,988.24l-4.4-5.12c-28.42-33.08-60.49-59.82-95.31-79.45-74.19-41.84-144.72-42.32-190.82-35.36l-2.88,.43,.7-482.46,2.13-.32c52.13-7.72,106.17-1.65,156.31,17.53,49.16,18.81,94.11,49.35,133.58,90.75l.69,.72v493.25Zm-245.81-128.28c42.45,0,94.55,8.9,148.56,39.36,33.54,18.92,64.55,44.3,92.25,75.51V496.99c-38.79-40.5-82.88-70.38-131.06-88.81-48.65-18.62-101.04-24.68-151.66-17.56l-.68,472.33c12.63-1.78,26.95-2.99,42.59-2.99Z"/></g></g><g><g><path class="cls-3" d="M416.38,932.5c.27-159.13,.53-318.26,.8-477.39,37.38-4.78,102.92-7.89,179.36,17.39,73.52,24.32,124.93,64.27,153.47,90.14v485.51c-24.78-24.94-61.44-55.83-111.03-80-93.88-45.77-180.21-41.19-222.59-35.65Z"/><path d="M752.5,1054.22l-4.27-4.3c-32.9-33.11-70.03-59.86-110.35-79.52-85.99-41.92-167.74-42.4-221.17-35.42l-2.83,.37,.81-482.44,2.18-.28c60.17-7.7,122.57-1.65,180.46,17.5,56.8,18.79,108.74,49.29,154.36,90.67l.82,.74v492.68Zm-283.97-127.6c49.01,0,109.16,8.88,171.53,39.29,39.09,19.05,75.2,44.69,107.43,76.24v-478.39c-44.91-40.52-95.96-70.42-151.75-88.88-56.48-18.68-117.31-24.75-176.07-17.56l-.79,472.35c14.69-1.81,31.4-3.04,49.65-3.04Z"/></g><g><path class="cls-3" d="M1083.48,932.5c-.27-159.13-.53-318.26-.8-477.39-37.38-4.78-102.92-7.89-179.36,17.39-73.52,24.32-124.93,64.27-153.47,90.14v485.51c24.78-24.94,61.44-55.83,111.03-80,93.88-45.77,180.21-41.19,222.59-35.65Z"/><path d="M747.35,1054.22v-492.68l.82-.74c45.62-41.37,97.56-71.88,154.36-90.67,57.89-19.15,120.29-25.2,180.46-17.5l2.18,.28,.81,482.44-2.83-.37c-53.44-6.98-135.19-6.5-221.17,35.42-40.32,19.66-77.45,46.41-110.35,79.52l-4.27,4.3Zm5-490.46v478.39c32.23-31.55,68.35-57.19,107.43-76.24,85.6-41.73,167.04-42.92,221.18-36.24l-.79-472.35c-58.76-7.19-119.59-1.13-176.08,17.56-55.79,18.46-106.84,48.36-151.75,88.88Z"/></g></g><g><g><path class="cls-1" d="M387.68,999.17c.29-159.13,.58-318.26,.87-477.39,40.59-4.78,111.77-7.89,194.78,17.39,79.85,24.32,135.67,64.27,166.67,90.14v485.51c-26.92-24.94-66.72-55.83-120.58-80-101.96-45.77-195.71-41.19-241.74-35.65Z"/><path d="M752.5,1120.55l-4.2-3.89c-35.75-33.12-76.09-59.89-119.9-79.55-93.46-41.95-182.32-42.43-240.42-35.45l-2.8,.34,.88-482.43,2.2-.26c65.29-7.69,132.99-1.65,195.8,17.48,61.65,18.78,118.01,49.27,167.54,90.62l.9,.75v492.4Zm-308.18-127.26c53.18,0,118.45,8.87,186.12,39.25,42.61,19.12,81.96,44.88,117.06,76.6v-478.66c-48.79-40.54-104.27-70.46-164.9-88.92-61.45-18.72-127.63-24.78-191.56-17.55l-.86,472.35c16-1.83,34.23-3.07,54.13-3.07Z"/></g><g><path class="cls-1" d="M1112.17,999.17c-.29-159.13-.58-318.26-.87-477.39-40.59-4.78-111.77-7.89-194.78,17.39-79.85,24.32-135.67,64.27-166.67,90.14v485.51c26.92-24.94,66.72-55.83,120.58-80,101.96-45.77,195.71-41.19,241.74-35.65Z"/><path d="M747.35,1120.55v-492.4l.9-.75c49.53-41.35,105.9-71.84,167.54-90.62,62.81-19.13,130.52-25.18,195.8-17.48l2.2,.26,.88,482.43-2.8-.34c-58.09-6.98-146.96-6.5-240.42,35.45-43.81,19.67-84.16,46.43-119.9,79.55l-4.2,3.89Zm5-490.06v478.66c35.1-31.72,74.45-57.48,117.06-76.6,93.01-41.75,181.5-42.88,240.26-36.18l-.86-472.35c-63.93-7.22-130.11-1.16-191.56,17.55-60.63,18.47-116.1,48.38-164.89,88.92Z"/></g></g></g><g><g><path class="cls-3" d="M497.12,1170.46c0,1.06-.21,2.33-1.06,3.39-2.55,4.03-5.52,8.27-8.49,12.09-2.97,4.03-5.52,8.27-8.06,12.3-.64,1.06-1.27,2.33-2.12,3.39-1.06,1.7-2.76,3.18-3.18,5.09-.21,1.7-1.49,2.97-1.91,4.88-.42,3.18-3.18,5.09-5.3,7-3.18,3.18-3.39,6.15-1.7,10.4,2.33,6.15,5.09,12.31,7.64,18.67,.64,1.91,1.7,3.82,1.91,5.94,.21,2.33,1.91,3.82,2.76,5.73,3.61,9.97,8.27,19.52,13.37,28.85,2.76,5.3,5.94,10.61,7.64,16.55,.42,.85,.64,1.7,.64,2.54,.21,2.55,.85,4.88,2.12,7.21,.64,1.06,1.7,2.12,1.06,3.82-2.97-.85-5.52-.85-7,2.76-.21,.64-.85-.21-1.27,0-1.91,.64-3.61,.42-5.52,.85-3.39,1.06-6.15-1.06-8.49-3.18-1.91-1.7-3.61-3.39-5.94-4.46-.85,.64,.21,1.91-.85,2.76-2.33-.85-3.61-2.76-4.46-5.09-2.55-7.43-4.88-15.06-7-22.7-2.33-7.64-4.88-15.06-7.21-22.49-2.33-7.85-5.09-15.49-6.58-23.76,0-.85-.64-1.49-1.06-2.55-1.91,1.27-1.7,2.76-1.7,4.46,.64,6.79,1.27,13.79,1.7,20.79,.42,11.24,1.7,22.28,1.27,33.31,0,2.33,0,4.67-1.7,6.58-.64,.85-.42,1.91-.85,2.97-.42,1.7-.21,3.82-3.18,3.82-1.91,0-1.06,2.76-2.12,4.24-2.33-1.49-4.46,.42-6.58,1.06-4.46,1.27-8.7-.64-9.55-5.09-.64-4.24-1.06-8.7-1.27-12.94-.64-10.18-1.48-20.16-2.33-30.13-.64-8.7-1.06-17.4-1.27-26.31,0-9.97-.64-19.94-.64-30.13-.21-8.27-.64-16.76,.64-25.04,.21-1.7-.21-3.39-.21-5.09-.21-1.7-.85-4.03-.21-5.09,1.91-2.12,3.61-4.03,2.55-7.21-.21-.21,.64-.85,1.27-.64,1.91,.42,3.39-.21,4.88-1.06,3.18-1.7,6.15-1.27,9.33-.42,2.33,.42,3.82,1.91,4.24,4.46,.85,5.09,1.49,9.97,1.49,15.06,0,2.55,0,4.88,.42,7.21,.85,4.67,.42,9.55,.42,14.21,.21,7,.64,14,1.06,21.43,2.55-1.91,3.82-4.24,5.3-6.36,3.82-5.09,7.43-10.61,11.03-15.91,6.58-9.76,13.58-19.31,21-28.43,2.33-2.76,5.09-5.3,7-8.49,1.06-1.49,2.97-1.7,4.24-3.39,1.06-1.27,3.61,.21,3.82,2.12Z"/><path d="M486.84,1324.72c-3.84,0-6.81-2.69-8.37-4.12l-.77-.69c-.69-.62-1.34-1.21-2-1.74-.2,.29-.45,.57-.78,.83l-1.1,.88-1.32-.48c-2.76-1-4.7-3.16-5.95-6.59-2.46-7.18-4.83-14.86-7.06-22.89-1.31-4.27-2.72-8.6-4.09-12.78-1.05-3.22-2.1-6.42-3.1-9.62-.59-1.99-1.2-3.92-1.8-5.86-.54-1.72-1.08-3.46-1.61-5.22,.25,3.03,.47,6.08,.66,9.12,.14,3.81,.39,7.62,.62,11.29,.46,7.29,.94,14.82,.66,22.26,0,2.36,0,5.4-2.19,7.99,0,.06-.04,.32-.07,.51-.07,.47-.16,1.05-.39,1.69-.04,.19-.08,.39-.11,.58-.25,1.38-.8,4.46-4.45,4.94v.05c-.14,.9-.33,2.13-1.1,3.21l-1.38,1.93-2-1.27c-.47-.3-.88-.21-2.49,.53-.64,.29-1.3,.6-2.03,.82-3.1,.89-6.23,.54-8.63-.93-2.14-1.32-3.6-3.48-4.1-6.09-.64-4.27-1.09-8.83-1.31-13.28-.63-10.12-1.49-20.25-2.33-30.04-.65-8.88-1.07-17.53-1.28-26.46,0-4.98-.16-10.01-.31-14.88-.16-4.99-.32-10.14-.32-15.3l-.07-2.63c-.21-7.47-.43-15.19,.74-22.79,.08-.67,0-1.52-.09-2.43-.07-.68-.14-1.38-.15-2.11-.04-.32-.1-.66-.16-1.01-.31-1.84-.66-3.93,.3-5.54l.29-.39c1.93-2.15,2.55-3.02,2.08-4.59-.33-.78-.27-1.69,.2-2.46,.69-1.11,2.39-1.98,4-1.54,.9,.18,1.65-.02,3.03-.81,3.99-2.13,7.7-1.6,11.13-.69,3.34,.65,5.58,3,6.16,6.48,.75,4.51,1.52,9.87,1.52,15.47,0,2.5,0,4.65,.38,6.77,.68,3.76,.6,7.54,.52,11.21-.03,1.16-.05,2.32-.05,3.46,.15,4.99,.42,10.03,.71,15.26,.09-.13,.18-.26,.26-.39,.28-.42,.56-.83,.84-1.24,2.98-3.97,5.83-8.2,8.59-12.3,.81-1.2,1.62-2.4,2.42-3.58,6.86-10.18,13.97-19.8,21.13-28.6,.75-.89,1.52-1.73,2.29-2.57,1.7-1.86,3.31-3.62,4.51-5.63l.11-.17c.83-1.16,1.9-1.79,2.76-2.29,.65-.38,1.17-.69,1.52-1.15l.08-.1c1.01-1.22,2.66-1.67,4.29-1.18,2.08,.63,3.7,2.53,3.93,4.62l.02,.28c0,1.9-.51,3.52-1.51,4.83-2.62,4.15-5.58,8.36-8.56,12.19-2.3,3.13-4.41,6.5-6.45,9.75-.49,.79-.98,1.58-1.48,2.35-.13,.22-.29,.5-.46,.79-.49,.85-1.04,1.82-1.74,2.72-.4,.63-.85,1.19-1.27,1.74-.67,.85-1.3,1.66-1.49,2.37-.19,1.25-.71,2.26-1.16,3.14-.32,.62-.6,1.17-.74,1.73-.53,3.59-3.11,5.82-5.19,7.61-.29,.25-.58,.5-.85,.74-2.27,2.29-2.52,4.09-1.1,7.65,1.37,3.6,2.83,7.1,4.39,10.8,1.07,2.56,2.18,5.21,3.25,7.87l.05,.14c.18,.55,.41,1.1,.63,1.65,.57,1.41,1.22,3.02,1.4,4.83,.08,.91,.59,1.69,1.24,2.68,.44,.67,.93,1.42,1.31,2.29l.07,.17c3.14,8.69,7.34,17.74,13.21,28.51,.54,1.03,1.07,2.02,1.6,3.02,2.32,4.34,4.73,8.83,6.19,13.83,.51,1.09,.77,2.2,.79,3.32,.2,2.26,.77,4.2,1.79,6.09,.08,.13,.17,.26,.26,.39,.68,1.03,1.96,2.94,.98,5.55l-.81,2.16-2.22-.63c-2.8-.8-3.34-.3-3.98,1.26-.28,.74-.81,1.32-1.52,1.62-.8,.34-1.53,.23-2.02,.06-1.1,.28-2.1,.37-3.01,.44-.68,.06-1.32,.11-1.94,.24-.84,.25-1.65,.36-2.43,.36Zm-12.94-13.31l1.35,.61c2.37,1.08,4.12,2.66,5.81,4.18l.76,.68c2.31,2.1,4.13,3.28,6.08,2.66l.2-.05c.98-.22,1.89-.29,2.7-.36,.91-.08,1.7-.14,2.49-.39,.22-.08,.43-.14,.63-.16,1.42-2.27,3.33-3.04,5.09-3.19-1.27-2.43-2.01-5.01-2.25-7.88v-.21c0-.46-.13-.93-.38-1.43l-.17-.43c-1.3-4.56-3.61-8.88-5.85-13.05-.54-1.01-1.08-2.02-1.6-3.03-5.95-10.91-10.24-20.16-13.46-29.06-.22-.47-.55-.98-.9-1.51-.82-1.25-1.84-2.81-2.03-4.94-.11-1.08-.57-2.23-1.06-3.44-.25-.63-.5-1.25-.71-1.87-1.04-2.6-2.13-5.2-3.19-7.72-1.5-3.58-3.06-7.28-4.44-10.92-2.15-5.39-1.48-9.3,2.27-13.05l.1-.09c.32-.28,.65-.57,.98-.86,1.69-1.46,3.28-2.83,3.52-4.62l.04-.21c.27-1.23,.79-2.23,1.21-3.03,.33-.63,.61-1.18,.66-1.62l.04-.23c.41-1.83,1.49-3.21,2.45-4.44,.39-.5,.77-.98,1.05-1.43l.17-.24c.5-.62,.95-1.42,1.39-2.18,.18-.32,.36-.64,.54-.94,.52-.82,1-1.6,1.49-2.38,2.09-3.34,4.24-6.79,6.7-10.12,2.9-3.73,5.87-7.96,8.39-11.95l.16-.23c.31-.38,.48-.92,.51-1.6,0-.01-.01-.03-.02-.04-.77,.77-1.59,1.25-2.28,1.65-.53,.31-.95,.56-1.18,.83-1.45,2.39-3.27,4.38-5.04,6.31-.72,.79-1.45,1.58-2.13,2.39-7.04,8.64-14.06,18.15-20.84,28.21-.81,1.19-1.61,2.38-2.42,3.58-2.79,4.15-5.68,8.43-8.69,12.44-.22,.31-.47,.7-.73,1.08-1.24,1.86-2.65,3.97-5.07,5.78l-3.73,2.8-.4-6.93c-.38-6.63-.74-12.9-.93-19.22,0-1.25,.03-2.44,.05-3.64,.08-3.41,.15-6.94-.44-10.2-.46-2.55-.46-5.04-.46-7.66,0-5.22-.7-10.13-1.45-14.65-.24-1.47-.89-2.16-2.23-2.41l-.2-.04c-3-.8-5.19-1.02-7.51,.21-1.23,.71-2.72,1.4-4.5,1.48-.05,2.81-1.71,4.87-3.15,6.49-.01,.52,.16,1.52,.26,2.16,.08,.47,.16,.93,.21,1.36l.02,.31c0,.55,.06,1.15,.12,1.79,.11,1.09,.23,2.32,.07,3.62-1.11,7.22-.9,14.71-.69,21.96l.07,2.7c0,5.14,.16,10.26,.32,15.21,.16,4.91,.32,9.98,.32,14.98,.21,8.79,.62,17.36,1.27,26.12,.83,9.79,1.7,19.94,2.34,30.15,.22,4.33,.65,8.72,1.25,12.73,.22,1.15,.83,2.08,1.79,2.67,1.2,.74,2.88,.88,4.6,.39,.37-.11,.84-.33,1.35-.56,1.1-.51,2.52-1.18,4.19-1.15,.26-1.33,1.01-3.69,3.85-3.69,.16,0,.28-.01,.36-.02,.07-.22,.14-.6,.18-.87,.06-.35,.13-.7,.21-1.03l.1-.32c.07-.17,.11-.44,.16-.76,.11-.75,.26-1.78,1.01-2.78l.13-.16c1.01-1.14,1.07-2.61,1.07-4.92,.28-7.28-.17-14.36-.65-21.85-.24-3.71-.48-7.55-.62-11.37-.42-6.92-1.06-14-1.69-20.65v-.67c-.03-1.67-.06-4.19,2.8-6.1l2.56-1.71,1.14,2.86c.1,.25,.23,.48,.38,.75,.33,.6,.78,1.4,.85,2.45,1.09,5.99,2.91,11.81,4.67,17.43,.61,1.96,1.23,3.92,1.81,5.89,.99,3.15,2.03,6.33,3.07,9.53,1.37,4.21,2.8,8.56,4.13,12.94,2.22,7.99,4.56,15.58,6.98,22.62,.25,.69,.52,1.26,.82,1.75,.17-.21,.37-.41,.62-.6l1.19-.89Zm-52.61-132.46h0Z"/></g><g><path class="cls-3" d="M533.18,1173.43c3.61,4.03,5.3,8.7,5.73,14,.42,9.33,.42,20.79,1.27,30.76,.64,7.21,.64,14.43,1.48,21.64,.42,2.76,.42,5.3,1.27,7.85,1.49,6.15,.85,12.09,0,18.03-1.27,8.49-1.06,16.97-1.49,25.25-.21,3.82,.21,7.64-1.7,11.24-.64,1.49-.21,2.97,.21,4.24,.21,1.27,1.06,2.54-.64,3.61-.64,.42-.21,1.27,.21,1.7,1.06,1.27,.42,2.33-.21,3.61q-1.7,2.76-4.24,1.06c-1.7-1.06-3.61-1.27-4.46,0-4.67,7.21-6.36,.64-11.67,1.27-1.27,.21-2.33-.85-2.76-2.12-.64-2.55-1.7-4.67-1.48-7.42,0-5.73,.21-11.46,.21-16.97,0-6.15-1.27-11.88-1.7-17.82-1.27-14.43-.42-28.64-1.27-42.86-.42-7.43,.21-15.06,0-22.28-.42-8.7,.21-19.73,.42-28.43q.21-3.18,3.61-3.18c.64-.21,1.06-.21,1.49-.21,.64-1.49-.42-2.76,0-4.24,.64-1.06,2.12-.42,2.97-1.48,.42-.42,1.27-.85,1.7-.64,3.82,.64,8.06,.21,11.03,3.39Zm0-29.07c1.06,.64,1.48,1.06,.85,2.12-.85,1.06,.21,2.12,.64,2.76,.85,1.27,.85,2.12,.21,3.18s-.85,2.33-.85,3.61c0,2.76-2.33,4.88-5.09,4.24-1.06-.21-2.33-.21-2.76,.42-2.12,1.27-3.82,.42-5.52,0-1.7-.64-2.76-2.12-2.97-3.82-.42-1.48-1.48-2.55-1.91-3.82-.64-.64-.85-1.91-.64-2.76,.85-5.09,2.76-6.79,8.06-7.64,1.48-.21,2.97,.21,4.24-.42,.42-.21,1.27-.21,1.48,0,1.27,1.49,3.18,1.06,4.24,2.12Zm1.7,97.38v4.88c0,.85,1.27,3.61,1.48,4.67l.42,4.67c.21-.85,.21-.21,.85-2.55,.64-2.33,.21-4.67,.21-5.94s-.64-4.24-.85-5.73l-1.06-8.91c-.42,1.27-1.06,6.15-1.06,8.91Z"/><path d="M526.54,1322.33c-1.38,0-2.69-.56-3.95-1.22-1.29-.67-2.14-1.06-3.28-.95-2.36,.35-4.6-1.2-5.47-3.81l-.05-.18c-.16-.65-.36-1.28-.55-1.89-.55-1.78-1.18-3.8-1.01-6.23,0-2.88,.06-5.79,.11-8.6,.05-2.87,.1-5.57,.1-8.28,0-3.54-.44-6.91-.9-10.48-.3-2.33-.62-4.73-.79-7.17-.71-8.07-.77-16.19-.82-24.04-.04-6.19-.08-12.59-.46-18.85-.24-4.24-.15-8.54-.06-12.7,.07-3.35,.14-6.52,.05-9.65-.32-6.49-.04-14.42,.2-21.42,.09-2.48,.17-4.89,.22-7.14v-.11c.28-4.19,1.23-5.35,5.1-5.5-.12-.73-.21-1.63,.09-2.66l.09-.32,.17-.28c.9-1.5,2.39-1.78,3.1-1.91,.08-.02,.16-.03,.24-.04h0c.98-.99,2.61-1.74,4.08-1.31,.73,.11,1.49,.19,2.29,.27,3.29,.33,7.02,.71,9.95,3.85l.04,.04c3.78,4.23,5.86,9.29,6.36,15.47,.16,3.39,.25,6.9,.35,10.62,.18,6.76,.38,13.74,.92,20.13,.28,3.13,.44,6.3,.59,9.36,.2,4.01,.41,8.16,.89,12.2,.13,.84,.23,1.74,.32,2.62,.18,1.67,.35,3.25,.84,4.73l.06,.2c1.6,6.62,.9,13,.04,18.97-.87,5.79-1.03,11.7-1.19,17.41-.07,2.5-.14,5.08-.27,7.61-.04,.8-.06,1.58-.07,2.37-.06,3.19-.13,6.48-1.85,9.8-.21,.58-.05,1.3,.31,2.4l.09,.38c.03,.18,.08,.36,.13,.54,.22,.82,.73,2.72-.54,4.38,1.23,2.16,.22,4.17-.36,5.31l-.21,.4c-1.11,1.8-1.84,2.99-3.42,3.34-1.57,.34-2.73-.43-4.34-1.51-.51-.32-.92-.42-1.15-.45-2.16,3.25-4.15,4.28-6.02,4.28Zm-6.83-7.18c2.22,0,3.9,.87,5.17,1.53,1.81,.94,1.96,1.01,3.66-1.61,1.58-2.37,4.82-2.68,7.88-.76,.15,.1,.3,.2,.45,.3,.09-.15,.19-.3,.28-.46l.06-.12c.12-.23,.27-.53,.35-.74-.44-.51-1.17-1.59-1.03-2.96,.09-.89,.55-1.7,1.27-2.24-.02-.07-.04-.15-.06-.21-.07-.26-.14-.53-.19-.8-.42-1.28-1.09-3.51-.08-5.86l.09-.19c1.22-2.31,1.27-4.8,1.33-7.67,.02-.84,.03-1.69,.08-2.54,.13-2.46,.2-5.01,.27-7.48,.16-5.86,.33-11.92,1.24-18,.81-5.67,1.43-11.25,.06-16.98-.06-.19-.12-.38-.18-.58,0,.19,.03,.41,.04,.64,.09,1.38,.24,3.48-.35,5.64-.42,1.52-.61,1.98-.8,2.39l-.03,.11-3.58,14.33-1.75-19.2c-.09-.33-.36-1.06-.55-1.56-.6-1.59-.96-2.62-.96-3.5v-4.88c0-2.87,.63-8.04,1.19-9.7l3.53-10.59,1.58,13.3c-.18-2.42-.3-4.81-.42-7.16-.15-3.02-.31-6.13-.58-9.18-.56-6.54-.75-13.6-.94-20.43-.1-3.69-.2-7.18-.34-10.44-.4-4.95-2.06-9.05-5.08-12.43-1.65-1.75-4.03-1.99-6.78-2.27-.8-.08-1.62-.16-2.44-.29-.69,.7-1.48,1.01-2.11,1.17,.17,.88,.4,2.19-.22,3.65l-.65,1.51h-1.65c-.34,0-.44,0-.7,.08l-.38,.13h-.41c-.35,0-.73,0-1.05,0-.02,.25-.04,.53-.06,.79-.06,2.25-.14,4.66-.22,7.14-.24,6.9-.51,14.72-.2,21.05,.1,3.31,.02,6.69-.05,9.96-.09,4.06-.18,8.26,.05,12.3,.38,6.38,.42,12.85,.46,19.1,.05,7.75,.1,15.76,.8,23.67,.17,2.33,.46,4.56,.76,6.92,.46,3.56,.94,7.25,.94,11.12,0,2.75-.05,5.61-.1,8.37-.05,2.82-.11,5.73-.11,8.6v.19c-.12,1.52,.3,2.89,.79,4.47,.21,.66,.41,1.34,.59,2.04,.06,.16,.14,.28,.2,.35,.31-.03,.61-.05,.9-.05Zm17.96-1.75h0Zm-15.41-140.99l-.02,.02s.02,0,.03,0h0Zm1.61-8.55c-1.2,0-2.25-.3-3.08-.54-.24-.07-.48-.14-.72-.2l-.27-.08c-2.41-.9-4.13-3.04-4.54-5.61-.15-.43-.42-.87-.73-1.38-.31-.5-.65-1.06-.92-1.71-1.02-1.37-1.2-3.22-.9-4.53,1.03-6.07,3.69-8.58,10.12-9.62,.8-.11,1.49-.1,2.1-.09,.58,0,1.17,.02,1.42-.1,1.05-.52,3.16-.74,4.37,.47l.13,.14c.18,.21,.48,.31,1.18,.49,.77,.21,1.79,.48,2.69,1.25,2.65,1.71,2.32,3.73,1.69,5,.02,.03,.05,.06,.07,.09,.11,.14,.2,.28,.29,.4,1.34,2.01,1.43,3.93,.28,5.86-.33,.54-.49,1.33-.49,2.32,0,2.16-.94,4.15-2.57,5.45-1.56,1.24-3.59,1.69-5.58,1.23-.23-.05-.43-.06-.58-.06l-.33,.2c-1.29,.78-2.51,1.03-3.6,1.03Zm-2.42-5.55c.24,.06,.49,.13,.73,.21,1.24,.36,1.8,.48,2.44,.18,1.05-.98,2.73-1.3,4.81-.88,.71,.16,1.16-.05,1.42-.26,.43-.35,.68-.91,.68-1.53,0-1.91,.41-3.56,1.2-4.89,.03-.05,.06-.1,.07-.13-.03-.07-.1-.2-.22-.38-.04-.06-.09-.13-.15-.2-1.15-1.55-1.5-2.99-1.05-4.29-.16-.06-.45-.14-.68-.2-.74-.2-1.77-.48-2.74-1.2-1.13,.41-2.23,.38-3.14,.37-.46,0-.9-.02-1.26,.03-4.28,.69-5.29,1.63-5.95,5.58l-.04,.2c-.02,.1,0,.34,.05,.46l.34,.34,.19,.56c.11,.32,.36,.73,.63,1.17,.44,.72,.99,1.62,1.31,2.75l.08,.38c.1,.81,.56,1.44,1.27,1.75Zm7.13-13.84h0Z"/></g><g><path class="cls-3" d="M637.78,1168.33c.85,1.27,0,2.55-.85,2.97-1.7,1.27-2.55,3.39-4.24,4.67-1.27,.85,.21,1.06,.21,1.91-1.7,.85-3.61,1.27-5.52,1.06-3.61-.21-7.43-.42-11.03-.42-2.76-.21-5.52,0-8.27,.42-2.33,.21-3.61,1.06-4.24,3.18-1.91-.42-3.39-1.49-5.52-1.27,1.27,2.76,.42,6.15,4.03,7.85,.85,.42,.85,1.91,.85,2.97-.42,4.67,.64,9.12,1.06,13.79,.64,6.37,.42,12.73,.42,19.09,.21,9.55-.42,18.88,0,28.43,.21,3.82,.64,7.43,1.06,11.03,.85,6.15,.64,12.3,.64,18.46,0,2.33-.42,4.88-.21,7.43,.21,5.52-.85,11.03-.85,16.76-.21,3.82-2.55,7-3.18,10.82,0,.42,0,.64-.21,.85-1.91,.85-4.03,.64-5.94,1.7-.64,.42-1.49,0-2.33-.42-1.27-.85-2.97-1.7-4.46-2.55-1.06-.42-2.12-.64-3.61,.21-2.97,1.7-7.21-1.49-7-5.09,.21-5.3-.42-10.82-.64-16.12-.21-4.88,0-9.55,1.06-14.21,.64-4.24,1.06-8.49-.21-12.73-.64-2.33-.85-4.67-.64-7,.42-3.61-.42-7-.42-10.4,0-7.64-.21-15.28-.21-22.91-.21-8.27-.42-16.55,1.06-24.61,.64-3.18,.21-6.58,.21-9.97,.21-2.55-.21-5.3,.85-7.85,.64-1.27,0-2.76-.21-4.24-.42-1.27-1.48-1.7-2.33-1.91-4.03-.21-8.27-.64-12.31,0-4.24,.64-8.49,.21-12.73,.42-1.27,.21-2.55-.21-3.61-1.27,.64-.85,1.27-1.06,1.91-1.27,1.27-.42,1.91-.85,1.49-2.55-.21-1.27,.64-1.91,2.12-2.33,3.82-1.06,8.06-.85,11.88-1.06,7.64-.42,14.85-2.12,22.06-3.18,9.12-1.06,18.03-3.18,27.37-2.55,5.73,.42,11.67,.21,17.4-.21h2.33c1.48,0,2.12,.85,2.76,2.12Zm-54.74,12.73c-.85,1.27-.85,5.94,.64,6.15l1.27,.21c-.64-1.7,.21-5.3-1.27-6.58,0-.21-.42,0-.64,.21Z"/><path d="M595.41,1322.7c-1.16,0-2.21-.53-2.88-.86l-.27-.16c-.76-.5-1.76-1.05-2.73-1.58-.48-.26-.96-.52-1.42-.78-.49-.19-.72-.21-1.29,.12-2.06,1.17-4.63,1.05-6.87-.34-2.51-1.56-4.03-4.33-3.87-7.07,.13-3.38-.1-7.01-.33-10.52-.12-1.76-.23-3.58-.31-5.36-.25-5.65,.1-10.35,1.1-14.78,.56-3.75,1-7.72-.15-11.55-.73-2.67-.97-5.33-.73-7.95,.23-1.97,.04-3.87-.16-5.88-.14-1.39-.28-2.83-.28-4.29,0-3.8-.05-7.68-.11-11.42-.05-3.76-.11-7.66-.11-11.49-.21-8.21-.43-16.75,1.1-25.06,.4-2.02,.33-4.2,.24-6.51-.04-1-.07-2-.07-3.01v-.21c.06-.67,.07-1.39,.08-2.15,.02-1.98,.03-4.22,.96-6.45l.07-.16c.07-.2-.1-.99-.2-1.46-.07-.31-.13-.62-.19-.94-.05-.04-.14-.1-.32-.16-.56-.03-1.12-.06-1.68-.1-3.3-.2-6.71-.41-9.83,.09-2.86,.43-5.66,.42-8.36,.39-1.56,0-3.03-.02-4.51,.05-2.05,.29-4.04-.41-5.62-2l-1.53-1.53,1.3-1.74c1.01-1.34,2.14-1.81,2.9-2.07-.16-1.24,0-3.86,3.92-4.98,3.16-.88,6.4-.96,9.53-1.05,.99-.03,1.96-.05,2.9-.1,5.04-.28,10.01-1.15,14.82-1.99,2.3-.4,4.68-.82,7.02-1.17,2.58-.3,5.13-.68,7.59-1.05,6.54-.98,13.31-1.99,20.31-1.52,4.85,.36,10.26,.29,17.04-.21h2.52c3.13,0,4.38,2.28,4.94,3.38,.65,1.06,.84,2.28,.53,3.45-.31,1.18-1.12,2.23-2.17,2.85-.52,.43-1,1.07-1.5,1.74-.45,.6-.94,1.25-1.53,1.86,.08,.26,.12,.56,.12,.88v1.54l-1.38,.69c-2.2,1.1-4.57,1.55-6.84,1.32-3.74-.22-7.38-.42-10.82-.42h-.19c-2.28-.18-4.8-.05-7.7,.39l-.15,.02c-1.63,.15-1.81,.54-2.08,1.41l-.67,2.23-2.27-.5c-.55-.12-1.05-.28-1.52-.44,.31,1.3,.65,1.85,1.64,2.32,2.28,1.14,2.28,3.8,2.28,5.23v.23c-.28,2.96,.12,5.9,.53,9,.19,1.4,.38,2.86,.52,4.33,.52,5.2,.49,10.45,.45,15.52,0,1.27-.02,2.53-.02,3.8,.09,4.24,.02,8.53-.05,12.69-.09,5.11-.18,10.4,.05,15.63,.21,3.7,.63,7.31,1.04,10.8,.73,5.3,.7,10.61,.67,15.74,0,1.02-.01,2.04-.01,3.06s-.07,2.02-.14,3c-.1,1.41-.2,2.86-.08,4.22v.11c.13,3.14-.14,6.27-.4,9.3-.21,2.48-.44,5.04-.44,7.56v.14c-.14,2.5-.99,4.64-1.81,6.71-.57,1.44-1.11,2.8-1.37,4.2-.01,.61-.11,1.55-.94,2.39l-.33,.33-.43,.19c-1.14,.51-2.27,.71-3.27,.89-.94,.17-1.75,.32-2.42,.67-.62,.38-1.24,.52-1.84,.52Zm-.51-5.27c.11,.06,.23,.12,.34,.17,1.24-.59,2.45-.81,3.53-1.01,.36-.07,.7-.13,1.02-.2,.36-1.71,.97-3.24,1.56-4.73,.7-1.75,1.35-3.41,1.46-5.08,0-2.71,.23-5.35,.45-7.91,.26-2.99,.5-5.81,.4-8.62-.14-1.72-.03-3.34,.08-4.92,.06-.94,.13-1.83,.13-2.66,0-1.03,0-2.06,.01-3.09,.03-5.18,.06-10.08-.62-15.03v-.1c-.43-3.57-.86-7.26-1.08-11.14-.24-5.41-.15-10.78-.06-15.97,.07-4.11,.15-8.35,.05-12.54,0-1.33,0-2.61,.02-3.89,.03-4.94,.07-10.05-.43-15.01-.13-1.39-.31-2.79-.5-4.14-.43-3.21-.88-6.53-.58-10.01,0-.26,0-.63-.03-.91-3.04-1.71-3.6-4.48-4.02-6.54-.16-.82-.32-1.59-.6-2.21l-1.47-3.19,3.49-.35c1.82-.18,3.29,.29,4.49,.73,1.13-1.53,2.85-2.4,5.21-2.63,3.22-.49,6.06-.63,8.68-.44,3.56,0,7.28,.2,11.08,.43h.13c.66,.08,1.34,.05,2.02-.08,0-.03,0-.06,0-.09,.1-.92,.62-1.7,1.54-2.33,.55-.42,1.05-1.1,1.58-1.8,.7-.93,1.49-1.98,2.62-2.83l.03-.02c-.19-.36-.3-.51-.35-.57-.01,0-.05,0-.08,0h-2.24c-6.99,.52-12.61,.58-17.67,.21-6.45-.44-12.65,.49-19.21,1.47-2.5,.38-5.1,.76-7.68,1.06-2.21,.33-4.55,.74-6.81,1.13-4.95,.87-10.07,1.77-15.4,2.06-.99,.06-2.01,.08-3.05,.11-2.83,.08-5.75,.15-8.3,.86-.08,.02-.15,.05-.22,.07,.13,.91,.04,1.71-.26,2.39,.91,0,1.81,0,2.69,0,2.63,.02,5.11,.03,7.57-.34,3.64-.57,7.33-.35,10.89-.13,.64,.04,1.28,.08,1.92,.11l.47,.07c1.4,.35,2.49,1,3.23,1.92l.02-.04,.31-.38c.75-.75,2.02-1.37,3.31-.83l1.54,.64,.02,.83c.92,1.44,.97,3.29,1,4.83,.01,.6,.04,1.51,.14,1.79l1.44,4.01-5.46-.88c-.41-.06-1.09-.25-1.72-.85-.15,.96-.16,1.99-.17,3.06,0,.79-.01,1.6-.08,2.42,0,.91,.04,1.82,.07,2.73,.09,2.5,.18,5.08-.33,7.63-1.43,7.77-1.22,16.04-1.01,24.05,0,3.87,.05,7.75,.11,11.49,.05,3.76,.11,7.66,.11,11.49,0,1.22,.12,2.47,.26,3.8,.22,2.18,.44,4.44,.15,6.89-.18,1.96,.01,4.02,.57,6.05,1.44,4.78,.89,9.61,.27,13.76l-.03,.18c-.91,4.01-1.23,8.31-1,13.55,.07,1.72,.19,3.51,.3,5.24,.24,3.64,.48,7.4,.34,11.09-.06,.95,.57,1.99,1.51,2.57,.25,.15,1.1,.62,1.75,.25,2.44-1.39,4.37-.93,5.77-.36l.31,.15c.48,.28,.99,.55,1.49,.83,1.02,.55,2.07,1.13,2.98,1.72Zm-45.42-140.98h0Z"/></g><g><path class="cls-3" d="M670.44,1166c1.27-.42,3.18,5.3,3.61,7.21,0-5.3,.85-9.12,3.82-1.06,1.49,3.82,3.39,7.64,4.46,11.67,1.06,4.67,2.97,9.12,3.61,13.79,.42,3.61,.85,2.55,2.55,5.73,2.97,5.3,2.76,11.46,4.24,17.18,2.55,9.55,5.94,18.67,9.55,27.79,2.76,6.79,3.82,14.21,5.3,21.64,.42,1.91,0,4.03,.42,6.15,2.12,7.85,4.67,15.7,7.85,23.34,1.91,4.46,3.61,9.55,3.18,15.06-.21,2.55-.42,5.3-4.03,5.73,0,.21,.42,2.12-1.91,2.33-1.06-1.06-2.55-1.27-3.61-3.39-.42-.85-1.91-.42-2.12-1.48-.85-2.33-3.82-2.97-4.24-1.06-.85,3.82-4.88,1.48-7.43,2.12-1.7,.64-2.76,0-3.18-1.7-2.33-7-4.67-13.79-6.36-20.58-1.49-5.73-4.46-11.03-5.52-16.97-.42-2.12-1.91-2.76-3.82-2.76-8.27,.42-14.64-.21-23.13,.85-1.91,.21-5.52-.64-6.79,.85-1.27,1.27-1.06,3.61-1.7,5.52-.85,4.03-2.12,7.64-2.55,11.67l-1.7,14.64c-.21,1.7-.42,3.61-.85,5.3-.42,2.55-1.48,3.18-4.67,2.33-.85-.21-2.33-4.88-3.18-1.49-.42,1.91-2.12-3.39-1.91-5.52,1.06-9.55,2.55-18.67,5.09-27.79l.64-3.18c.42-2.97,.42-2.76-2.33-3.61-1.49-.42-3.18-.64-4.03-2.33,.85-1.91,2.76-1.48,4.24-1.7,4.88-1.27,4.24-.21,4.88-5.09,1.06-7.21,3.82-16.34,4.67-23.55,1.27-10.61,2.97-18.88,5.52-29.28,1.91-7.85,2.55-10.82,3.61-18.67,1.06-6.36,2.12-12.73,2.97-18.88,.21-1.49,.42-3.18-.21-4.67-.42-1.48-.64-3.61,1.48-4.46,2.12-.85,4.24-3.39,6.79-1.91,2.33,1.06,4.67,.64,6.79,.21Zm-10.61,35.64c.21,4.46-.64,8.91-1.91,13.15-1.48,5.3-.85,11.03-2.76,16.34-1.7,5.3-2.76,10.61-3.39,16.34-.85,7.21-2.12,14.43-3.39,21.64,7-.42,14.64-.64,21.43-1.06,1.27,0,2.55-.42,3.82-.85,3.18-.64,3.39-1.06,2.33-4.03-1.91-4.88-2.55-10.18-4.03-15.28-1.27-4.24-1.49-8.91-2.97-13.37-1.91-5.3-2.97-11.03-3.61-16.55-.64-6.15-1.91-12.3-4.24-18.67-1.06,.85-1.48,1.7-1.27,2.33Zm33.31,33.73c.42-1.49-1.49-9.12-2.55-9.76-1.7,1.7,2.12,8.49,2.55,9.76Z"/><path d="M712.15,1325.17l-.83-.83c-.17-.17-.45-.35-.78-.56-.82-.52-2.01-1.29-2.97-2.89-.66-.2-2.01-.72-2.53-2.22-1.56,3.15-5.17,2.76-6.82,2.57-.67-.07-1.42-.15-1.84-.08-1.79,.62-3.1,.26-3.89-.15-.81-.42-1.87-1.33-2.38-3.24l-.67-2.02c-2.14-6.41-4.17-12.46-5.72-18.67-.6-2.33-1.48-4.6-2.4-7.01-1.23-3.21-2.51-6.53-3.15-10.13-.09-.46-.14-.69-1.3-.7-3.21,.16-6.14,.17-8.98,.18-4.54,.01-8.82,.02-13.9,.65-.81,.09-1.65,.05-2.54,.01-.8-.04-2.26-.1-2.75,.09l-.04,.04c-.25,.25-.41,1.27-.54,2.01-.12,.73-.25,1.56-.51,2.38-.31,1.45-.67,2.84-1.01,4.18-.62,2.42-1.21,4.7-1.46,7.1l-1.77,15.2c-.19,1.57-.41,3.34-.82,4.99-.22,1.24-.69,2.94-2.25,3.95-1.7,1.1-3.74,.76-5.51,.29-.76-.19-1.29-.65-1.73-1.21-.48,.21-1.01,.26-1.49,.19-3.43-.55-3.78-7.97-3.72-8.64,1.22-10.95,2.85-19.88,5.15-28.13l.6-3.02c.03-.2,.06-.4,.08-.59-.06-.02-.12-.04-.18-.05l-.51-.15c-.13-.04-.32-.09-.51-.13-1.51-.39-3.78-.99-5.02-3.47l-.53-1.06,.48-1.08c1.29-2.9,4.07-3.04,5.4-3.1,.22,0,.44-.02,.65-.04,.75-.19,1.38-.33,1.9-.45,.23-.05,.48-.11,.69-.16,.04-.3,.09-.69,.13-1.06,.05-.38,.1-.81,.16-1.29,.51-3.46,1.39-7.32,2.24-11.06,.98-4.28,1.98-8.71,2.42-12.46,1.34-11.16,3.12-19.59,5.57-29.58,1.92-7.89,2.52-10.73,3.56-18.41,1.05-6.31,2.13-12.77,2.97-18.89,.19-1.34,.32-2.51-.03-3.34l-.11-.3c-1.49-5.23,1.89-7.04,2.96-7.46,.39-.16,.89-.47,1.41-.8,1.64-1.02,4.35-2.73,7.43-1.03,1.5,.64,3.06,.42,5.09,.01,.75-.19,1.53-.08,2.24,.32,.56,.31,1.07,.87,1.53,1.55,.3-.18,.64-.31,1.03-.38,2.81-.5,4.23,2.66,5.54,6.23,.44,1.12,.93,2.29,1.43,3.46,1.14,2.7,2.32,5.49,3.1,8.44,.43,1.88,.97,3.64,1.54,5.51,.85,2.76,1.72,5.61,2.13,8.58,.2,1.73,.28,1.83,.71,2.42,.35,.48,.88,1.2,1.56,2.47,2.14,3.81,2.76,7.93,3.37,11.92,.31,2.03,.6,3.95,1.09,5.82,2.59,9.7,6.07,18.95,9.45,27.5,2.32,5.71,3.49,11.9,4.62,17.88,.26,1.39,.53,2.79,.81,4.19,.26,1.17,.26,2.35,.26,3.49,0,.92,0,1.79,.15,2.59,2.29,8.47,4.82,15.98,7.72,22.94,1.82,4.24,3.85,9.93,3.37,16.22-.19,2.26-.51,6.13-4.25,7.55-.16,.45-.39,.85-.69,1.22-.52,.64-1.52,1.43-3.27,1.59l-1.17,.11Zm-2.7-8.93c.67,.21,1.68,.65,2.26,1.82,.23,.46,.48,.75,.78,1v-1.04l2.21-.26c1.32-.16,1.58-.42,1.83-3.42,.4-5.19-1.29-9.94-2.99-13.91-3.01-7.21-5.61-14.95-7.97-23.67l-.04-.16c-.26-1.3-.26-2.55-.26-3.65,0-.91,0-1.77-.15-2.46-.29-1.47-.56-2.88-.83-4.29-1.14-6-2.21-11.68-4.35-16.95-1.56-3.96-3.15-8.06-4.66-12.29l-1.96,6.87-2.55-7.66c-.06-.17-.31-.71-.52-1.15-2.11-4.53-3.81-8.79-1.43-11.18l1.38-1.38,.53,.32c-.15-.54-.3-1.08-.44-1.62-.55-2.13-.88-4.27-1.19-6.33-.56-3.71-1.1-7.21-2.82-10.27-.53-1-.89-1.48-1.2-1.9-.92-1.25-1.33-2.02-1.65-4.75-.34-2.53-1.12-5.06-1.95-7.75-.57-1.87-1.17-3.8-1.62-5.78-.66-2.52-1.77-5.14-2.85-7.68-.16-.39-.33-.77-.49-1.16v20.44l-4.94-22.23c-.32-1.46-1.19-3.87-1.82-5.08-2.03,.36-4.55,.58-7.17-.61l-.23-.12c-.4-.23-.77-.15-2.39,.87-.69,.43-1.4,.88-2.21,1.2-.12,.05-.16,.09-.16,.09-.03,.06-.08,.46,.12,1.24,.85,2.13,.53,4.35,.32,5.83-.85,6.18-1.93,12.67-2.98,18.94-1.08,8.02-1.78,11.18-3.64,18.85-2.4,9.81-4.15,18.08-5.46,28.99-.47,4.01-1.51,8.57-2.52,12.98-.87,3.81-1.69,7.4-2.16,10.63-.06,.42-.1,.83-.15,1.2-.44,3.65-1.03,4.68-4.69,5.5-.18,.04-.37,.08-.58,.13,2.82,1.07,3.15,2.52,2.68,5.8l-.04,.23-.68,3.36c-2.23,8.01-3.83,16.71-5.02,27.4-.03,.33,.04,.9,.16,1.5,1.85-.05,2.91,1.64,3.56,2.68,.05,.08,.12,.18,.18,.28,.37,.08,.61,.1,.77,.11,.04-.13,.09-.32,.13-.6l.04-.2c.34-1.38,.54-2.96,.73-4.49l.06-.52,1.69-14.62c.29-2.75,.95-5.32,1.59-7.8,.34-1.33,.7-2.71,.99-4.09l.07-.28c.16-.49,.26-1.1,.37-1.75,.24-1.47,.54-3.3,1.87-4.68,1.68-1.88,4.42-1.75,6.62-1.65,.65,.03,1.33,.06,1.72,.02,5.34-.67,9.78-.68,14.47-.69,2.79,0,5.68-.01,8.8-.17h.13c4.63,0,5.91,2.99,6.27,4.77,.57,3.18,1.7,6.14,2.91,9.27,.93,2.43,1.9,4.95,2.58,7.57,1.51,6.04,3.5,12,5.61,18.32l.74,2.21,.17-.05c1.26-.32,2.55-.18,3.68-.05,.56,.06,1.46,.16,1.83,.08,.02-.05,.05-.14,.08-.27,.39-1.75,1.8-2.96,3.59-3.07,2.09-.14,4.18,1.19,5.18,3.22Zm-72.48-.24h0Zm-7.15-.18s-.01,.04-.02,.06c0-.02,0-.04,.02-.06Zm6.21-.34s.04,.01,.06,.02c-.02,0-.04-.01-.06-.02Zm52.78-88.15h0Zm-43.45,44.47l.55-3.12c1.24-7.05,2.53-14.34,3.37-21.5,.67-6.06,1.82-11.56,3.5-16.81,.96-2.68,1.22-5.45,1.5-8.38,.24-2.57,.49-5.24,1.23-7.87,1.37-4.58,1.97-8.54,1.83-12.14-.19-1-.09-2.8,2.2-4.63l2.71-2.17,1.2,3.26c2.24,6.11,3.67,12.41,4.38,19.27,.72,6.24,1.86,11.47,3.47,15.96,.87,2.62,1.32,5.18,1.76,7.66,.36,2.06,.7,4.01,1.25,5.83,.62,2.11,1.09,4.23,1.54,6.28,.69,3.1,1.34,6.03,2.42,8.8,.55,1.54,1.21,3.38,.27,5.03-.91,1.61-2.76,2.02-4.29,2.33-1.31,.44-2.79,.91-4.38,.93-3.46,.21-7.2,.38-10.82,.54-3.51,.15-7.13,.31-10.54,.52l-3.16,.19Zm16.27-61.55c-.33,1.69-.76,3.44-1.31,5.27-.6,2.16-.82,4.48-1.06,6.94-.29,3.11-.6,6.33-1.75,9.52-1.57,4.91-2.62,9.95-3.26,15.77-.74,6.26-1.79,12.55-2.87,18.69,2.48-.13,5-.24,7.47-.35,3.62-.16,7.36-.32,10.79-.54h.16c.87,0,1.92-.35,3.03-.72l.3-.08c.27-.05,.49-.1,.67-.14-.05-.17-.12-.36-.21-.59-1.2-3.06-1.92-6.32-2.62-9.47-.44-1.97-.89-4.01-1.46-5.95-.63-2.09-1.01-4.28-1.38-6.39-.4-2.3-.82-4.68-1.56-6.89-1.73-4.79-2.95-10.39-3.72-17.05-.29-2.77-.7-5.43-1.23-8.02Z"/></g><g><path class="cls-3" d="M737.27,1169.18c.21,.42,.64,.85,1.27,.85,3.39-.85,6.79,.42,10.18,.21,6.37-.21,12.73-.85,18.88,0,7.21,.64,14.43,1.06,20.58,5.52,3.18,2.33,6.15,5.09,8.7,8.27,2.33,2.97,2.55,6.15,4.03,9.12,.21,.64,0,1.49,.21,2.12,.85,3.82,.64,9.12,1.06,13.79,.42,4.88,.64,9.97-1.06,14.85l-1.49,2.76c-3.39,5.94-4.88,10.18-8.49,12.09-3.82,1.91-7,4.67-10.4,7-.64,.42-1.27,1.06-2.12,1.27-6.58,2.76-12.31,7-18.46,10.61l-2.76,1.49c-4.24,2.12-4.46,4.24-4.46,5.09l-.21,4.24c1.27,7.85-.64,15.7,.21,23.34,.42,3.18-.85,7.43-.85,10.4,0,5.09,.21,9.97,1.27,14.85,.21,1.06,.42,1.91,0,2.76-.21,1.49-1.06,2.33-2.55,1.7-3.61-1.27-10.4,1.49-13.15-5.3-.64-1.91-.21-7.43-1.06-8.06-1.06-.64-1.49,9.76-2.33,9.76-3.61,0-5.73-1.7-5.94-5.3-.21-2.76-.42-5.3,0-8.06,.64-5.94,0-12.94,0-18.88v-11.24c0-1.7-.64-2.55-2.76-2.12-2.12,.64-2.76-.42-2.12-2.33,.64-1.27,1.48-2.97,2.55-2.97,2.76-.42,2.12-2.12,2.12-3.82-.42-10.4-1.27-20.58-1.49-30.97-.21-10.18-.21-20.16,0-30.34,0-5.73,.85-11.24,1.27-16.97,.21-2.55,0-5.3-.21-7.85-.21-1.27,0-2.12-.21-2.97-.21-.85-3.82-1.27-4.03-2.12,.42-1.49,3.61-1.27,4.03-3.18,.21-1.06,2.33-2.12,3.39-1.7,1.91,1.06,4.67,0,6.37,2.12Zm11.24,7.21c.42,2.76,1.49,5.52,1.27,8.49-.21,2.76,0,5.73,0,8.7-.21,8.91-.42,18.03,.64,26.94,.64,5.94,0,12.09,1.27,18.03,.42,3.18,.85,6.36,.85,9.55,0,1.06,0,2.55,.85,3.82,.85-.64,1.27-1.06,1.7-1.48,2.55-3.61,7-4.67,10.18-8.06,1.7-1.7,4.24-2.97,5.3-5.09,2.97-6.15,5.52-12.3,6.79-19.09,.21-1.49,.85-2.12,2.12-2.33,0,2.97-.85,6.58-2.76,11.67-.21,.85,0,.85,0,1.27,2.12,0,7.43-14,5.52-20.37,0-.21-.21-.42-.64-.42-.64,.42-.64,1.48-1.49,2.33-1.27-1.27-.85-2.55-.64-3.82,.64-2.55,.64-3.39,.85-5.73,.21-1.7,0-4.46-.42-6.15-.21-1.27-.42-2.97-1.27-4.24-1.91-3.61-3.39-7.43-6.37-10.61-1.27-1.49-2.76-2.76-5.09-3.39-5.94-1.7-12.09-.21-18.03-.64-.21,0-.42,.21-.64,.64Z"/><path d="M751.76,1324.22c-.53,0-1.13-.1-1.8-.37-.7-.23-1.83-.24-3.04-.26-3.12-.05-7.63-.12-10.43-4.31-.47,.75-1.14,1.12-2.2,1.12-5.07,0-8.15-2.79-8.44-7.66v-.16c-.23-2.79-.43-5.42,.02-8.37,.4-3.81,.26-8.17,.12-12.39-.07-2.16-.14-4.19-.14-6.18v-10.85c-2.14,.5-3.4-.21-4.09-.93-.76-.78-1.49-2.23-.66-4.72l.14-.33c.83-1.66,2.07-4.13,4.46-4.34,0-.13-.01-.26-.02-.37-.02-.3-.04-.6-.04-.91-.17-4.15-.41-8.33-.65-12.38-.35-6.06-.71-12.34-.84-18.6-.21-10.24-.21-20.2,0-30.44,0-3.86,.38-7.7,.76-11.41,.19-1.86,.38-3.79,.52-5.7,.19-2.26,.02-4.67-.2-7.36-.11-.73-.12-1.33-.12-1.82-.15-.05-.29-.1-.41-.14-1.5-.5-3.21-1.07-3.65-2.82l-.16-.65,.18-.64c.53-1.86,2.19-2.54,3.29-2.98,.24-.1,.58-.24,.78-.34,.31-1.06,1.17-2.02,2.44-2.71,.7-.38,2.5-1.18,4.25-.48l.29,.14c.31,.17,.97,.23,1.6,.29,1.46,.14,3.65,.34,5.3,2.22,2.05-.31,4.03-.08,5.8,.13,1.32,.16,2.57,.3,3.74,.23,1.48-.05,2.89-.12,4.3-.19,4.93-.24,10.03-.48,15.01,.2l1,.09c7.06,.61,14.36,1.25,20.77,5.89,3.53,2.58,6.61,5.52,9.18,8.74,1.73,2.21,2.47,4.46,3.13,6.45,.36,1.11,.71,2.15,1.19,3.12l.14,.33c.23,.7,.23,1.37,.23,1.85,0,.12,0,.24,0,.35l.04,.17c.58,2.62,.7,5.8,.82,8.88,.07,1.75,.14,3.56,.29,5.22,.42,4.83,.71,10.44-1.19,15.9l-.16,.36-1.49,2.76c-.8,1.4-1.47,2.66-2.08,3.81-2.22,4.18-3.98,7.47-7.43,9.3-2.51,1.25-4.69,2.87-7,4.58-1.02,.75-2.08,1.54-3.15,2.27-.16,.11-.29,.21-.42,.31-.55,.41-1.29,.97-2.29,1.27-4.29,1.82-8.2,4.28-12.33,6.89-1.85,1.17-3.75,2.37-5.69,3.51l-2.84,1.53c-1.99,1-3.14,2.06-3.14,2.89v.12l-.2,3.98c.67,4.39,.44,8.7,.2,12.88-.2,3.59-.39,6.98-.02,10.32,.29,2.17-.07,4.56-.42,6.88-.21,1.42-.41,2.75-.41,3.79,0,4.53,.15,9.41,1.22,14.32l.05,.23c.22,1.06,.48,2.37-.08,3.78-.29,1.46-1.04,2.58-2.13,3.19-.39,.22-1.05,.49-1.91,.49Zm-.9-4.5h0Zm-10.81-4.36c1.26,3,3.37,3.17,6.96,3.23,1.35,.02,2.74,.04,4.02,.37l.13-.26c0-.09-.1-.58-.17-.95l-.04-.2c-1.16-5.35-1.32-10.76-1.32-15.34,0-1.41,.23-2.93,.47-4.54,.3-1.97,.6-4.01,.4-5.53-.42-3.8-.21-7.56-.01-11.2,.23-4.18,.45-8.12-.19-12.07l-.04-.26,.22-4.45c.03-2.9,1.99-5.34,5.84-7.26l2.69-1.45c1.79-1.05,3.66-2.23,5.47-3.38,4.16-2.63,8.47-5.35,13.21-7.33l.36-.12c.13-.04,.48-.3,.71-.47,.21-.16,.43-.32,.64-.46,.98-.68,1.98-1.41,2.98-2.15,2.38-1.76,4.84-3.58,7.69-5,2.05-1.08,3.34-3.52,5.31-7.21,.64-1.2,1.33-2.5,2.13-3.89l1.36-2.52c1.5-4.48,1.24-9.38,.87-13.63-.16-1.79-.23-3.66-.3-5.48-.11-2.95-.22-5.73-.69-7.9-.19-.64-.18-1.25-.18-1.69,0-.09,0-.18,0-.27-.56-1.18-.94-2.34-1.31-3.47-.6-1.83-1.12-3.41-2.29-4.9-2.28-2.85-5.05-5.49-8.21-7.8-5.28-3.82-11.58-4.37-18.26-4.95l-1.19-.11c-4.55-.63-9.21-.4-14.15-.16-1.43,.07-2.87,.14-4.3,.19-1.55,.1-3.08-.08-4.57-.26-1.82-.21-3.54-.42-5.09-.03l-.3,.07h-.31c-1.35,0-2.59-.72-3.32-1.89-.31-.3-.77-.38-1.96-.49-.9-.08-1.98-.18-3.05-.64-.12,.04-.26,.11-.37,.18-.27,.84-.74,1.46-1.28,1.92,.65,.42,1.16,1,1.37,1.85,.18,.72,.18,1.36,.18,1.93,0,.43,0,.8,.07,1.23l.03,.2c.24,2.85,.43,5.62,.21,8.26-.14,1.95-.34,3.91-.53,5.8-.38,3.75-.73,7.3-.73,10.96-.21,10.22-.21,20.11,0,30.29,.13,6.17,.49,12.39,.83,18.41,.24,4.09,.48,8.31,.65,12.51v.1c0,.22,.02,.45,.03,.66,.08,1.32,.29,4.8-4.03,5.59-.06,.08-.12,.17-.18,.27,1.14-.03,2.11,.29,2.87,.91,1.01,.83,1.53,2.12,1.53,3.82v11.24c0,1.9,.07,3.9,.14,6.01,.15,4.41,.3,8.96-.15,13.14v.11c-.38,2.41-.21,4.67,0,7.29l.02,.2c.08,1.4,.43,2.35,1.67,2.77,.11-.7,.22-1.51,.31-2.16,.59-4.34,.86-6.32,2.56-7.14,.81-.39,1.76-.34,2.53,.12l.21,.14c1.41,1.06,1.5,3,1.63,5.95,.05,1.07,.12,2.67,.28,3.26Zm-14.22-41.34h0Zm26.95-18.51l-1.47-2.2c-1.27-1.9-1.27-3.97-1.27-5.21,0-2.99-.39-5.97-.81-9.12-.79-3.76-.87-7.54-.95-11.2-.05-2.43-.1-4.72-.34-6.99-1.08-9.1-.86-18.34-.65-27.27,0-.92-.02-1.9-.05-2.87-.05-1.97-.1-4.01,.05-5.96,.12-1.62-.26-3.28-.67-5.04-.21-.93-.43-1.89-.58-2.88l-.12-.79,.36-.71c.88-1.76,2.18-2.02,2.87-2.02h.18c2.08,.16,4.2,.05,6.44-.06,3.93-.19,7.99-.39,12.1,.79,3.12,.85,4.99,2.65,6.27,4.13,2.52,2.72,4.03,5.75,5.48,8.68,.39,.78,.77,1.56,1.18,2.33,1.01,1.59,1.31,3.42,1.53,4.77l.04,.24c.5,2.07,.69,5.04,.45,6.96l-.07,.85c-.11,1.27-.19,2.22-.47,3.61,1.26,.24,2.22,1.16,2.43,2.35,1.75,6.34-2.07,17.79-4.78,21.43-.36,.48-1.45,1.95-3.19,1.95h-.73c-1.02,2.53-2.12,4.89-3.17,7.07-.96,1.92-2.58,3.18-4.02,4.29-.66,.51-1.28,.99-1.77,1.48-1.62,1.73-3.57,2.94-5.29,4.01-1.89,1.17-3.52,2.18-4.62,3.73l-.28,.33c-.46,.46-.98,.98-1.96,1.71l-2.11,1.59Zm-1.32-77.17c.01,.07,.03,.13,.04,.2,.45,1.94,.95,4.15,.78,6.52-.13,1.72-.09,3.54-.04,5.47,.02,1.01,.05,2.03,.05,3.05-.21,8.82-.42,17.88,.62,26.65,.27,2.51,.32,5.02,.37,7.45,.08,3.61,.15,7.02,.86,10.35l.03,.19c.37,2.8,.75,5.67,.85,8.56,1.28-1.15,2.7-2.03,4.09-2.89,1.6-.99,3.11-1.93,4.33-3.23,.76-.76,1.54-1.37,2.29-1.95,1.11-.86,2.17-1.68,2.6-2.55,2.5-5.18,5.25-11.44,6.56-18.39,.47-3.13,2.53-4.11,4.18-4.39l.48-.08-1.2-1.2c-2.06-2.06-1.63-4.37-1.4-5.62l.11-.58c.49-1.97,.56-2.78,.7-4.39l.08-.96c.18-1.42,0-3.87-.36-5.32l-.1-.55c-.16-.98-.36-2.2-.83-2.91l-.13-.22c-.45-.84-.87-1.69-1.29-2.54-1.36-2.75-2.65-5.34-4.69-7.53l-.07-.08c-1.24-1.45-2.35-2.2-3.85-2.61-3.35-.96-6.83-.79-10.51-.61-1.49,.07-3.01,.16-4.55,.14Z"/></g><g><path class="cls-3" d="M901.05,1285.23c0,.42-.21,.85-.21,1.06-1.49,2.12-4.03,2.76-5.09,4.46-1.49,2.55-1.7,3.82-3.18,5.52-1.27,1.27-2.76,2.33-4.24,3.61-.64,.64-1.27,1.7-2.12,2.76-4.46,4.88-5.94,7-10.18,9.12-3.82,1.91-7.43,4.24-11.03,6.79-2.55,1.7-5.52,2.76-8.27,3.61-.64,.85-1.06,1.91-1.27,2.76l-.64,1.27c5.52,1.06,9.97,3.18,13.37,7.64,1.49,1.7,1.49,4.03,1.7,5.94,0,1.06,.42,1.91,.64,3.18,.64,3.82,.21,7.21-1.91,10.61-1.27,1.7-2.55,3.39-4.24,5.09-.85,.85-1.7,1.06-2.97,1.06-.64,0-1.7,0-2.33,.64-1.06,1.06-2.55,.21-3.61,0-1.49,0-2.55-.21-4.03,.21-2.76,.64-5.3-.85-7.64-1.91l-5.3-2.33c-2.12-.85-3.39-2.33-4.46-4.03-.85-.85,.21-1.27,.64-1.49,.42-.21,1.27,.21,1.7-.21,0-.21-.42-.21-.42-.42-1.27-.21-1.91-.64-1.27-1.91v-1.27c0-.64-.64-1.7,0-1.7,.42-.21,1.27-.42,2.12-.42,1.7,0,2.97,1.7,4.46,1.7,.42,0,.64,.42,.64,.42,1.06,1.27,2.12,1.49,3.39,1.91,1.91,1.06,.64-.42-.42-1.27-1.91-1.49,7.21,.64,8.06-.85l2.12-3.61c.42-.85-.21-2.12,.21-2.55,.21-.42,.42-.85,.42-1.06,0-1.06-4.67-5.3-6.15-5.52-1.7-.21-4.03-.64-5.94-.42-1.91,.21-3.39-1.91-2.76-3.82,.42-2.12,.85-4.03,1.7-5.94,0-.21-.21-.21-.21-.21-1.06-.42-2.12-.85-2.97,0-.21,.42-.85,.64-1.06,.64-4.03-1.48-6.79-2.12-10.61-3.61-2.97-1.27-7.85-8.06-9.12-11.24-2.97-6.58-5.3-11.88-5.94-19.09-.21-5.52,.42-8.49-1.49-14-.85-2.12,0-4.67-1.06-7-1.06-1.7-1.06-3.82-.42-5.73,.64-2.33,.64-4.67,.64-7,.42-9.76,0-19.73,1.7-29.28,.85-4.88,.21-9.55,1.27-14.43,2.55-13.58,8.06-25.88,15.49-37.34,.21-.21,.42-.42,.85-.64,.21,.21,.64,.21,.85,.42,1.49,1.49,2.55,1.27,3.39-.42,1.91-3.18,4.46-5.52,7.43-7.64,.64-.42,1.06-1.27,2.12-.85,4.46,1.49,8.91-.21,13.15-.85,9.97-1.91,18.88,.42,27.37,5.3,4.24,2.55,6.37,7,6.58,11.67,.42,8.7,1.27,37.55-4.03,30.55-2.97-3.82-1.06,2.33-2.55,3.82-1.06,1.06-.85,2.55-1.7,3.61-5.52-5.3-5.3-12.73-6.58-19.31-1.06-5.52-1.7-11.03-2.12-16.55-.64-7.85-10.18-12.73-17.82-9.12,1.49,.21,2.33,.42,3.18,.42,.42,.42,.42,.85,0,1.06-3.39,2.33-5.09,5.3-6.37,9.33-1.48,4.67-3.82,9.12-4.46,14-.85,6.58-3.61,12.73-4.67,19.31-.85,3.82-1.7,7.64-2.12,11.67-1.06,8.49,0,22.49-.42,28.22-.21,1.27-.64,2.55-.42,3.82,.85,3.39,.42,6.79,.21,10.18-.21,2.55,2.55,4.88,2.76,7.21,.64,6.15,1.7,12.09,4.88,17.61,2.33,4.03,5.52,6.15,10.18,5.52l8.7-.64c1.49,0,2.55-.85,3.82-1.7,5.73-3.39,7.43-4.03,12.31-8.49,.64-.42,2.97-1.49,5.73-4.03,2.55-2.55,5.09-4.24,7.64-7,1.49-1.49,4.03-2.76,5.3-2.97,1.06,1.7-2.55,4.88-.85,6.15Zm-81.04-73.62c-.21,0-2.33,13.37-2.33,13.79-.64,.85-.42,7.43-.42,8.06-.85,1.7,3.18,5.73,2.33,1.7-.64-3.18,3.18-23.55,.42-23.55Zm43.28,121.99c.64,1.7,1.27,2.76,2.12,3.82-.85-1.06,.42-3.18-2.12-3.82Z"/><path d="M857.78,1363.36c-.93,0-1.76-.25-2.31-.42-.11-.03-.22-.07-.33-.1-.31,0-.6-.02-.88-.03-.87-.03-1.44-.06-2.16,.15l-.12,.03c-3.25,.75-6.09-.59-8.36-1.66-.29-.14-.58-.28-.87-.41l-5.28-2.32c-2.77-1.11-4.37-3.12-5.44-4.8-.88-1.03-.88-2.07-.78-2.62,.11-.63,.38-1.12,.71-1.5-.09-.53-.07-1.18,.2-1.93v-.65c-.02-.07-.04-.13-.06-.2-.17-.62-.53-1.89,.34-3.04,.37-.49,.9-.83,1.49-.99,.82-.32,1.87-.52,2.85-.52,1.56,0,2.77,.72,3.65,1.24,.29,.17,.72,.43,.88,.46h.01c.88,0,1.6,.4,2.12,.9,1.03-.53,2.52-.42,4.36-.28,.92,.07,2.49,.18,3.36,.13l1.52-2.59c0-.09-.02-.17-.03-.26-.06-.53-.16-1.41,.22-2.25-.97-1.1-3.02-2.85-3.84-3.22-.24-.03-.52-.07-.81-.11-1.38-.19-3.11-.43-4.36-.29-1.68,.18-3.34-.52-4.45-1.88-1.14-1.41-1.52-3.32-1.01-5.04,.17-.83,.34-1.65,.54-2.47-.24,.05-.47,.08-.67,.08h-.45l-.42-.15c-1.82-.67-3.39-1.17-4.92-1.65-1.78-.56-3.61-1.15-5.73-1.97-3.9-1.67-9.1-9.12-10.52-12.59-2.8-6.21-5.45-12.07-6.13-19.86v-.12c-.06-1.43-.06-2.71-.06-3.83,0-3.3,0-5.69-1.28-9.4-.54-1.4-.57-2.79-.6-4.03-.02-1.04-.04-1.95-.34-2.69-1.26-2.14-1.47-4.89-.59-7.59,.53-1.99,.53-4.08,.53-6.28v-.11c.12-2.76,.17-5.6,.23-8.34,.13-7.01,.26-14.25,1.51-21.27,.36-2.09,.43-4.17,.5-6.38,.08-2.61,.17-5.32,.79-8.14,2.43-12.99,7.62-25.49,15.83-38.17l.14-.22,.19-.19c.27-.27,.71-.71,1.49-1.1l1.62-.81,.97,.98c.25,.09,.54,.23,.83,.45,1.86-2.99,4.32-5.48,7.92-8.05,.11-.08,.16-.13,.22-.19,.5-.45,1.99-1.82,4.2-.98,2.72,.89,5.62,.29,8.68-.35,1.04-.22,2.12-.44,3.21-.61,9.75-1.86,19.25-.02,29.04,5.6,4.72,2.83,7.56,7.83,7.83,13.72,1.56,32.06-2.13,33.4-3.9,34.05-.52,.19-1.33,.34-2.26,.01-.19,.8-.53,1.57-1.15,2.19-.12,.12-.23,.49-.34,.88-.2,.69-.47,1.64-1.17,2.52l-1.71,2.14-1.97-1.9c-4.98-4.79-5.86-11.02-6.65-16.52-.2-1.43-.4-2.79-.65-4.11-.97-5.05-1.68-10.55-2.16-16.83-.22-2.66-1.84-5.05-4.45-6.56-1.53-.88-3.21-1.37-4.89-1.46,0,.07-.02,.14-.03,.21-.14,.88-.67,1.63-1.45,2.1-2.58,1.8-4.07,4.04-5.31,7.96-.52,1.63-1.13,3.23-1.73,4.77-1.16,3.01-2.25,5.85-2.63,8.8-.47,3.66-1.5,7.17-2.49,10.56-.88,3.02-1.71,5.87-2.19,8.82l-.03,.14c-.86,3.89-1.67,7.52-2.08,11.39-.62,4.98-.5,11.91-.38,18.02,.08,4.14,.14,7.72-.04,10.12l-.03,.23c-.06,.35-.13,.7-.2,1.05-.15,.71-.29,1.39-.23,1.88,.79,3.25,.57,6.38,.35,9.4-.03,.48-.07,.95-.1,1.43-.05,.66,.55,1.7,1.09,2.62,.71,1.22,1.52,2.61,1.67,4.21,.57,5.49,1.51,11.32,4.55,16.59,2.01,3.46,4.3,4.75,7.68,4.29l.16-.02,8.88-.64c.53,0,1.04-.34,1.99-.98l.55-.37c1.02-.6,1.9-1.12,2.71-1.58,3.68-2.13,5.36-3.11,9.19-6.6l.3-.23c.17-.11,.42-.26,.76-.45,.94-.53,2.69-1.52,4.67-3.34,1.13-1.13,2.32-2.15,3.47-3.13,1.4-1.19,2.71-2.31,4.03-3.73,1.96-1.97,5-3.45,6.73-3.74l1.65-.28,.88,1.42c1.23,1.97,.22,4.07-.44,5.46-.08,.17-.18,.38-.27,.58l.25,.18v1.25c0,.56-.12,1.03-.21,1.33v.52l-.45,.65c-1.04,1.48-2.38,2.38-3.46,3.1-.68,.46-1.33,.89-1.56,1.25-.48,.82-.82,1.53-1.15,2.21-.58,1.19-1.13,2.32-2.27,3.62l-.11,.12c-.91,.91-1.9,1.71-2.86,2.48-.47,.38-.96,.77-1.44,1.18-.23,.24-.53,.67-.85,1.12-.31,.44-.65,.91-1.03,1.38l-.11,.12c-.67,.74-1.27,1.41-1.83,2.03-3.15,3.51-5.06,5.64-9.08,7.65-3.24,1.62-6.54,3.65-10.71,6.59-2.62,1.75-5.5,2.85-8.09,3.67-.03,.06-.06,.11-.08,.17,5.11,1.46,8.92,3.99,11.86,7.81,1.76,2.06,1.99,4.6,2.17,6.46,.02,.27,.05,.53,.08,.78l.02,.28c0,.3,.1,.66,.23,1.15,.12,.46,.27,.98,.37,1.62,.79,4.71,.07,8.63-2.25,12.34l-.12,.17c-1.3,1.74-2.65,3.53-4.48,5.36-1.58,1.58-3.28,1.79-4.74,1.79-.18,0-.51,0-.7,.03-.93,.86-1.97,1.12-2.9,1.12Zm-4.34-5.57c.36,0,.7,.01,1.02,.03,.31,.01,.64,.03,.99,.03l.49,.05c.31,.06,.65,.16,1,.27,.18,.06,.43,.13,.61,.17,1.33-1.13,3.01-1.13,3.84-1.13,.87,0,.98-.11,1.2-.33,1.55-1.55,2.72-3.1,3.94-4.74,1.62-2.63,2.08-5.34,1.51-8.79-.07-.39-.16-.75-.27-1.14-.18-.66-.38-1.41-.4-2.3-.03-.24-.05-.49-.07-.74-.1-1.04-.19-2.05-.5-2.85l-3.33,2.67c-1.1-1.37-1.83-2.68-2.51-4.5l-1.66-4.41c-1.47-.61-3.11-1.08-4.96-1.43l-3.24-.62,2-4c.23-.83,.71-2.15,1.62-3.37l.49-.65,.78-.24c2.46-.76,5.29-1.74,7.62-3.3,4.33-3.06,7.83-5.21,11.3-6.95,3.17-1.59,4.56-3.13,7.6-6.52,.55-.61,1.14-1.27,1.8-1.99,.3-.38,.57-.76,.82-1.11,.47-.65,.91-1.27,1.43-1.79l.14-.13c.55-.47,1.1-.92,1.64-1.35,.87-.7,1.69-1.36,2.4-2.06,.66-.77,.97-1.41,1.48-2.45,.34-.7,.76-1.56,1.37-2.62,.84-1.34,2.02-2.13,3.06-2.83,.59-.39,1.15-.77,1.61-1.2-.14-.46-.18-.92-.14-1.38-1.37,1.45-2.78,2.65-4.14,3.81-1.12,.96-2.19,1.86-3.25,2.92-2.48,2.29-4.63,3.51-5.67,4.09-.12,.07-.23,.12-.31,.17-4.11,3.73-6.17,4.93-9.88,7.08-.77,.45-1.63,.95-2.6,1.52l-.35,.24c-1.19,.81-2.67,1.81-4.7,1.84l-8.54,.62c-5.35,.7-9.6-1.57-12.6-6.75-3.51-6.08-4.58-12.54-5.2-18.6-.05-.53-.56-1.41-1.01-2.18-.86-1.48-1.93-3.32-1.75-5.5,.03-.44,.06-.93,.1-1.42,.2-2.79,.39-5.43-.24-7.95l-.04-.2c-.24-1.42,.03-2.68,.26-3.79,.05-.25,.1-.5,.15-.74,.15-2.17,.08-5.75,.01-9.54-.12-6.28-.25-13.4,.42-18.69,.43-4.11,1.3-8.04,2.15-11.85,.51-3.17,1.43-6.3,2.31-9.34,.98-3.35,1.91-6.52,2.33-9.8,.46-3.55,1.72-6.81,2.93-9.95,.59-1.54,1.15-3,1.63-4.49,1.03-3.26,2.32-5.74,4.07-7.75l-7.1-1.02,7.53-3.55c4.57-2.16,9.97-1.9,14.45,.69,4.05,2.34,6.58,6.17,6.93,10.5,.47,6.1,1.15,11.42,2.08,16.28,.28,1.44,.49,2.92,.69,4.35,.55,3.84,1.07,7.53,2.85,10.64,.1-.14,.21-.27,.33-.41,.09-.37,.12-1.18,.13-1.63,.05-1.41,.12-3.55,2.13-4.2,1.32-.43,2.41,.19,3.19,.91,.93-4.36,1.19-15.29,.58-27.74-.19-4.2-2.15-7.72-5.37-9.65-8.8-5.06-16.95-6.65-25.61-4.99l-.1,.02c-.96,.14-1.94,.35-2.98,.56-3.27,.68-6.96,1.44-10.78,.36-.14,.12-.31,.26-.5,.38-3.05,2.18-5.12,4.29-6.63,6.77-.8,1.54-1.88,2.44-3.22,2.66-.94,.16-1.86-.05-2.77-.6-7.38,11.68-12.07,23.2-14.31,35.17-.53,2.45-.61,4.81-.69,7.32-.07,2.28-.15,4.63-.58,7.08-1.18,6.64-1.31,13.68-1.44,20.49-.05,2.76-.1,5.61-.22,8.41,0,2.44,0,4.97-.72,7.61l-.04,.13c-.46,1.38-.4,2.7,.17,3.61l.16,.29c.77,1.7,.81,3.4,.84,4.77,.02,.95,.04,1.76,.27,2.34l.04,.11c1.57,4.54,1.57,7.57,1.57,11.08,0,1.12,0,2.28,.05,3.58,.62,6.93,2.99,12.16,5.72,18.22l.04,.1c1.2,3,5.74,9,7.79,9.88,1.89,.73,3.57,1.27,5.35,1.83,1.25,.4,2.53,.8,3.97,1.31,1.82-1.44,3.9-.73,5.06-.27,1.14,.32,1.98,1.37,1.98,2.61v.53l-.22,.49c-.75,1.69-1.14,3.45-1.53,5.41l-.08,.3c-.08,.24,.09,.51,.18,.55,1.81-.22,3.87,.07,5.53,.29,.32,.04,.64,.09,.93,.12,2.15,.31,8.34,5.21,8.34,8,0,.7-.25,1.29-.55,1.89,.07,.66,.18,1.75-.36,2.83l-.08,.15-2.12,3.61c-1.05,1.85-3.46,1.91-6.36,1.72-.07,.28-.2,.57-.39,.86-.5,.75-1.68,1.78-4.03,.58l-.23-.08c-1.11-.36-2.47-.79-3.77-2.17-.7-.15-1.32-.44-1.85-.74v.93c.37,.56,.42,1.13,.42,1.43v1.04l-.73,.73c-.18,.18-.37,.33-.55,.44,.56,.54,1.15,.92,1.84,1.2l5.38,2.37c.34,.15,.65,.3,.96,.45,1.8,.85,3.51,1.66,5.06,1.32,.99-.28,1.86-.34,2.64-.34Zm-16.29-9.96l.85,.14s-.08-.05-.12-.07c-.2-.12-.49-.29-.72-.41v.34Zm9.22-2.19l.02,.02-.02-.02Zm4.38-.16l-.03,.04,.03-.04Zm47.82-60.4h0Zm-16.67-69.64h0Zm6.78-3.54h0Zm-57.31-37.78h0Zm1.2-.22h0Zm-13.34,65.49c-.72,0-1.64-.26-2.62-1.2-1.3-1.24-2.33-3.28-1.87-5.12v-.03c-.1-5.46,.11-7.41,.51-8.41,.19-1.49,.71-4.67,1.04-6.7,.28-1.71,.57-3.41,.8-4.68,.44-2.41,.75-4.15,2.91-4.15,.87,0,1.68,.37,2.28,1.03,1.63,1.82,1.53,5.53,.36,16.5-.32,3.01-.76,7.13-.61,8.04,.56,2.65-.45,3.83-1.39,4.36-.23,.13-.74,.36-1.42,.36Z"/></g><g><path class="cls-3" d="M934.15,1173.43c3.61,4.03,5.3,8.7,5.73,14,.42,9.33,.42,20.79,1.27,30.76,.64,7.21,.64,14.43,1.48,21.64,.42,2.76,.42,5.3,1.27,7.85,1.49,6.15,.85,12.09,0,18.03-1.27,8.49-1.06,16.97-1.49,25.25-.21,3.82,.21,7.64-1.7,11.24-.64,1.49-.21,2.97,.21,4.24,.21,1.27,1.06,2.54-.64,3.61-.64,.42-.21,1.27,.21,1.7,1.06,1.27,.42,2.33-.21,3.61q-1.7,2.76-4.24,1.06c-1.7-1.06-3.61-1.27-4.46,0-4.67,7.21-6.37,.64-11.67,1.27-1.27,.21-2.33-.85-2.76-2.12-.64-2.55-1.7-4.67-1.48-7.42,0-5.73,.21-11.46,.21-16.97,0-6.15-1.27-11.88-1.7-17.82-1.27-14.43-.42-28.64-1.27-42.86-.42-7.43,.21-15.06,0-22.28-.42-8.7,.21-19.73,.42-28.43q.21-3.18,3.61-3.18c.64-.21,1.06-.21,1.49-.21,.64-1.49-.42-2.76,0-4.24,.64-1.06,2.12-.42,2.97-1.48,.42-.42,1.27-.85,1.7-.64,3.82,.64,8.06,.21,11.03,3.39Zm1.7,68.31v4.88c0,.85,1.27,3.61,1.49,4.67l.42,4.67c.21-.85,.21-.21,.85-2.55,.64-2.33,.21-4.67,.21-5.94s-.64-4.24-.85-5.73l-1.06-8.91c-.42,1.27-1.06,6.15-1.06,8.91Z"/><path d="M927.5,1322.33c-1.38,0-2.69-.56-3.95-1.22-1.29-.67-2.14-1.06-3.28-.95-2.36,.35-4.6-1.2-5.47-3.81l-.05-.19c-.16-.65-.36-1.28-.55-1.89-.55-1.78-1.18-3.8-1.01-6.23,0-2.88,.06-5.79,.11-8.6,.05-2.87,.1-5.57,.1-8.28,0-3.55-.44-6.91-.9-10.48-.3-2.33-.62-4.73-.79-7.17-.71-8.07-.77-16.19-.82-24.04-.04-6.19-.08-12.59-.46-18.84-.24-4.24-.15-8.55-.06-12.71,.07-3.35,.14-6.52,.05-9.64-.32-6.5-.04-14.43,.2-21.42,.09-2.48,.17-4.89,.22-7.14v-.11c.28-4.19,1.23-5.35,5.1-5.5-.12-.73-.21-1.63,.09-2.66l.09-.32,.17-.28c.9-1.5,2.39-1.78,3.1-1.92,.08-.01,.16-.03,.24-.04h0c.98-.99,2.61-1.74,4.08-1.31,.73,.11,1.49,.19,2.29,.27,3.29,.33,7.02,.71,9.95,3.85l.04,.04c3.78,4.23,5.86,9.29,6.36,15.47,.16,3.39,.25,6.9,.35,10.62,.18,6.76,.38,13.74,.92,20.13,.28,3.13,.44,6.3,.59,9.37,.2,4.01,.41,8.16,.88,12.19,.13,.84,.23,1.74,.32,2.63,.18,1.67,.35,3.25,.84,4.72l.06,.2c1.6,6.62,.9,13,.04,18.97-.87,5.79-1.03,11.7-1.19,17.41-.07,2.5-.14,5.08-.27,7.61-.04,.8-.06,1.58-.08,2.37-.06,3.18-.13,6.48-1.85,9.8-.21,.58-.05,1.3,.31,2.4l.09,.38c.03,.18,.08,.36,.13,.54,.22,.82,.73,2.72-.54,4.38,1.23,2.16,.22,4.17-.36,5.31l-.21,.4c-1.11,1.8-1.84,2.99-3.42,3.34-1.57,.34-2.73-.43-4.34-1.51-.51-.32-.92-.42-1.15-.45-2.16,3.25-4.15,4.28-6.02,4.28Zm-6.83-7.18c2.21,0,3.9,.87,5.17,1.53,1.81,.94,1.96,1.01,3.66-1.61,1.58-2.37,4.81-2.68,7.88-.76,.15,.1,.3,.2,.45,.3,.09-.15,.19-.3,.28-.46l.06-.12c.12-.23,.27-.53,.35-.74-.44-.51-1.17-1.59-1.03-2.96,.09-.89,.55-1.7,1.27-2.24-.02-.07-.04-.15-.06-.21-.07-.26-.14-.53-.19-.8-.42-1.28-1.09-3.51-.08-5.85l.09-.19c1.22-2.31,1.27-4.8,1.33-7.68,.02-.84,.03-1.69,.08-2.54,.13-2.46,.2-5.01,.27-7.48,.16-5.86,.33-11.92,1.24-18,.81-5.67,1.43-11.25,.07-16.98-.06-.19-.12-.38-.18-.58,0,.2,.03,.41,.04,.64,.1,1.38,.24,3.48-.35,5.64-.42,1.52-.61,1.98-.8,2.39l-.03,.11-3.58,14.33-1.75-19.2c-.09-.33-.36-1.06-.55-1.56-.6-1.59-.96-2.62-.96-3.5v-4.88c0-2.87,.63-8.04,1.19-9.7l3.53-10.59,1.58,13.3c-.18-2.42-.3-4.81-.42-7.15-.15-3.02-.31-6.14-.58-9.19-.56-6.54-.75-13.6-.94-20.43-.1-3.69-.2-7.18-.34-10.44-.4-4.96-2.06-9.05-5.08-12.43-1.65-1.75-4.03-1.99-6.78-2.27-.8-.08-1.62-.16-2.44-.29-.69,.7-1.48,1.01-2.11,1.17,.17,.88,.4,2.19-.22,3.65l-.65,1.51h-1.65c-.34,0-.44,0-.7,.08l-.38,.13h-.41c-.35,0-.73,0-1.05,0-.02,.25-.04,.53-.06,.79-.06,2.25-.14,4.66-.22,7.14-.24,6.9-.51,14.72-.2,21.05,.1,3.31,.02,6.68-.05,9.95-.09,4.06-.18,8.27,.05,12.31,.38,6.38,.42,12.85,.46,19.1,.05,7.75,.1,15.77,.8,23.68,.17,2.33,.46,4.56,.76,6.92,.46,3.57,.94,7.25,.94,11.12,0,2.75-.05,5.61-.1,8.37-.05,2.82-.11,5.73-.11,8.6v.19c-.12,1.52,.3,2.89,.79,4.47,.21,.66,.41,1.34,.59,2.04,.06,.16,.14,.28,.2,.35,.31-.03,.61-.05,.9-.05Zm17.96-1.75h0Zm-15.41-140.99l-.02,.02h.03v-.02Z"/></g><g><path class="cls-3" d="M992.7,1166c1.48,3.18,2.97,6.15,5.09,8.91,1.91,2.55,2.76,5.52,3.39,8.49,4.03,15.49,8.06,33.1,11.88,48.58,1.06,4.88,2.12,9.76,3.82,15.49,1.7-4.88,2.12-9.12,2.76-13.37,1.06-6.58,1.49-13.15,2.76-19.52,1.27-7.21,2.55-14.43,4.24-21.43,1.27-5.94,2.12-12.94,4.88-18.46,1.49-2.76,3.82-5.09,6.79-4.46l5.09,1.06c1.27,.21,2.12,.64,3.18,1.49,2.55,2.55,2.97,2.33,4.46-1.27,0-.21,.21-.21,.64-.64,1.06,.42,1.91,1.91,3.39,.64,.64-.64,1.91-.21,2.97,.21,.64,.21,1.06,.85,1.7,1.06,7.42,2.33,7.85,8.27,8.06,14.43,0,.85-.21,1.7-.21,2.33,1.06,11.03-.85,22.06-1.06,32.88,0,8.7,.21,17.61,1.06,26.31,.85,7.21,.85,14.85,1.7,22.06,1.06,9.55,.21,19.09,.64,28.64,.21,4.03,1.06,7.85,.85,11.88-.42,4.46-2.33,6.15-7,5.09-1.06,.64-.64,1.7-.85,2.55-.85,1.7-2.12,2.12-4.03,1.7-4.67-.64-7.85-3.39-11.46-5.73-4.24-2.76-5.09-6.37-5.09-10.4-.21-6.15-.64-12.09,0-18.25,.42-3.82,0-7.43-.42-11.03-1.27-13.37-1.06-26.52-2.12-39.89-1.06-12.52-.85-25.04-2.55-37.55l-.64-1.7c-1.7,2.54-2.33,5.09-2.97,7.42-1.49,5.3-3.61,10.61-4.67,15.91-2.12,10.82-4.67,21.43-4.67,32.46,0,2.33-.64,4.67-.85,7.21-.42,3.61-2.12,7.21-.64,10.82,1.27,3.61-1.7,5.52-3.18,7.85-.42,.85-1.48,.42-2.12,0-1.27-.42-2.55-1.27-4.03-1.06-.42,1.49-.42,2.76,1.7,2.76,2.12,.21,2.76,3.18,3.82,4.46-.85,1.27-1.7,1.06-2.97,1.27-3.61,.42-7.85,.21-9.12-1.48-1.7-2.12-2.12-1.91-4.46-3.18-3.61-2.12-5.94-5.73-7.42-9.55-5.09-12.94-9.97-26.1-13.79-39.46-1.91-7.21-3.82-14.64-5.94-21.85-.64-2.33-1.27-4.67-2.33-7.21,.85,4.24-1.27,8.27-.42,12.52,.85,5.09,0,10.18,.21,15.49,.42,8.49,.21,17.4,.85,25.88,.64,7.43,1.06,14.85,2.12,22.06,.64,4.24,1.27,8.49,.85,12.73-.64,7-.64,14.21-.42,21.21,.21,1.06,.21,2.12-.42,3.18-1.7,2.33-3.18,2.76-6.37,1.06-.85,.42-.64,1.7-1.91,1.91-.21-.42-.85-.64-.85-1.27l-.64-11.88,.42-24.61c.21-7.43-.21-14.85-1.06-22.28-1.48-15.28-1.7-30.76-1.27-46.04,.21-10.82-.21-23.76,0-34.79,.21-1.49,0-3.18-.21-4.67-.21-1.7,.85-2.55,2.33-3.18,2.54-.85,4.88-.64,7,.21,1.49-.64,1.49-2.12,2.33-2.97,2.97-2.97,3.39-3.39,7.43-1.7,2.33,.85,4.88,1.91,5.94,4.88,.21,.42,.64,.85,1.49,.64,.42-1.91-.42-4.03,.64-5.73,1.06-.21,1.48,.21,1.7,.85Zm60.68,55.8c1.91-4.24,1.7-11.25-.42-13.79-2.12,4.88,.21,8.91,.42,13.79Z"/><path d="M1060.14,1323.31c-.52,0-1.08-.06-1.69-.19-4.33-.62-7.44-2.74-10.45-4.8-.64-.43-1.27-.87-1.93-1.29-5.53-3.59-6.23-8.57-6.23-12.5-.04-.96-.08-2.01-.12-3.05-.2-5-.41-10.18,.13-15.46,.39-3.55,0-6.91-.42-10.47-.7-7.34-.96-14.64-1.21-21.69-.21-5.99-.43-12.19-.92-18.3-.43-5.04-.65-10.16-.87-15.11-.21-4.82-.43-9.75-.84-14.67-.46,1.52-.94,3.02-1.42,4.49-1.08,3.34-2.11,6.49-2.75,9.67-.32,1.63-.65,3.26-.98,4.89-1.87,9.24-3.64,17.96-3.64,27.08,0,1.55-.24,3.05-.47,4.5-.15,.96-.31,1.94-.39,2.92-.14,1.24-.39,2.35-.62,3.42-.52,2.36-.96,4.39-.2,6.24l.05,.12c1.43,4.06-.84,6.8-2.34,8.61-.4,.48-.77,.93-1.05,1.35-.41,.74-1.05,1.27-1.83,1.54,.13,.23,.24,.46,.35,.66,.21,.4,.46,.9,.62,1.08l1.2,1.43-1.04,1.55c-1.33,1.99-3.04,2.17-4.06,2.28-.18,.02-.37,.04-.58,.07l-.12,.02c-3.28,.39-9.13,.58-11.41-2.47-.88-1.1-1.07-1.2-2.14-1.71-.42-.2-.91-.44-1.52-.77-3.76-2.21-6.62-5.84-8.56-10.84-4.56-11.6-9.78-25.39-13.86-39.68l-1-3.8c-.79-3-1.59-6.05-2.42-9.09,.04,1.76-.03,3.48-.09,5.18-.07,1.93-.15,3.92-.07,5.87,.18,3.66,.25,7.47,.31,11.16,.08,4.85,.17,9.87,.53,14.63,.15,1.8,.3,3.62,.44,5.45,.43,5.45,.87,11.08,1.66,16.44,.65,4.32,1.32,8.78,.86,13.34-.53,5.83-.66,12.42-.42,20.7,.32,1.79,.06,3.35-.77,4.74l-.12,.18c-2.11,2.9-4.44,3.75-7.57,2.68-.47,.55-1.19,1.1-2.32,1.28l-1.82,.3-.7-1.41c-.38-.35-1.2-1.18-1.23-2.55l-.64-11.92v-.09l.43-24.61c.2-6.91-.14-14.08-1.04-21.95-1.35-13.89-1.77-29.05-1.29-46.39,.1-5.35,.05-11.37,0-17.2-.05-5.91-.11-12.01,0-17.57l.03-.31c.16-1.14-.02-2.64-.21-3.96-.23-1.84,.25-4.3,3.82-5.83l.2-.07c2.38-.79,4.77-.88,7.12-.26l.03-.05c.25-.51,.59-1.22,1.21-1.84,3.39-3.4,4.84-4.46,10.11-2.26,1.23,.45,2.89,1.06,4.38,2.22,.14-.48,.35-.96,.65-1.43l.57-.92,1.06-.21c2.09-.42,3.8,.48,4.5,2.35,1.3,2.79,2.75,5.72,4.76,8.34,2.23,2.98,3.17,6.29,3.85,9.43,2.55,9.79,5.1,20.47,7.58,30.79,1.45,6.07,2.89,12.06,4.3,17.77,.39,1.81,.79,3.64,1.22,5.51,.06-.4,.12-.8,.17-1.21,.09-.65,.19-1.3,.28-1.95,.44-2.75,.78-5.54,1.1-8.23,.45-3.75,.92-7.63,1.68-11.41,1.25-7.07,2.55-14.44,4.26-21.53,.26-1.24,.52-2.59,.79-3.97,.98-5.12,1.99-10.42,4.29-15.02,2.42-4.48,5.88-6.57,9.55-5.78l5.03,1.05c1.62,.28,2.86,.86,4.28,1.99l.21,.18s.09,.09,.13,.13c.05-.11,.1-.23,.15-.36,.16-.61,.55-1.14,1.14-1.57,.03-.02,.08-.05,.13-.11l1.17-1.17,1.53,.61c.52,.21,.93,.49,1.27,.72,1.77-1.17,4-.32,5.05,.1,.7,.25,1.2,.65,1.53,.92,.06,.05,.12,.1,.18,.14,9.19,2.95,9.47,10.88,9.67,16.68,0,.71-.08,1.29-.14,1.75-.03,.21-.06,.44-.07,.59,.68,7.21,.13,14.4-.4,21.35-.29,3.85-.59,7.83-.67,11.67,0,10.54,.32,18.58,1.05,26.02,.43,3.63,.65,7.45,.86,11.13,.21,3.61,.42,7.35,.83,10.88,.66,5.89,.6,11.79,.55,17.5-.03,3.72-.07,7.57,.1,11.33,.08,1.43,.24,2.84,.41,4.34,.29,2.49,.58,5.07,.44,7.79v.11c-.3,3.09-1.28,5.21-3.01,6.45-1.28,.92-2.88,1.31-4.83,1.18-.02,.12-.04,.25-.08,.37l-.07,.27-.12,.25c-.78,1.55-2.26,3.23-5.02,3.23Zm-22.9-132.63l2.45,6.53,.04,.28c1.03,7.62,1.37,15.32,1.7,22.76,.22,4.9,.44,9.96,.86,14.92,.5,6.23,.72,12.49,.93,18.53,.25,6.98,.51,14.21,1.19,21.33,.43,3.64,.88,7.45,.42,11.55-.51,4.9-.31,9.67-.11,14.72,.04,1.05,.08,2.1,.12,3.16,0,3.62,.66,6.25,3.96,8.39,.68,.44,1.36,.9,2.03,1.36,2.79,1.9,5.19,3.55,8.4,3.98l.21,.04c.69,.15,.9,.16,1.06-.05,0-.02,0-.05,0-.07,.02-.8,.06-2.67,1.98-3.83l.86-.52,.98,.22c1.45,.33,2.54,.32,3.01-.02,.27-.2,.75-.82,.95-2.82,.11-2.28-.14-4.52-.42-6.9-.17-1.5-.35-3.06-.43-4.67-.17-3.91-.14-7.82-.11-11.61,.05-5.56,.1-11.3-.52-16.88-.43-3.67-.65-7.48-.86-11.17-.21-3.61-.42-7.35-.83-10.88-.97-9.9-1.08-19.92-1.08-26.6,.08-4.03,.38-8.08,.68-12,.51-6.79,1.05-13.82,.39-20.65v-.24c-.01-.46,.05-.91,.1-1.33,.05-.37,.1-.71,.1-1-.22-6.29-.75-10.29-6.31-12.04-.78-.26-1.31-.68-1.66-.96-.06-.05-.13-.11-.19-.15h-.02c-.4-.17-.67-.26-.85-.31-1.42,.99-2.72,.88-3.71,.51-.66,1.3-1.5,2.38-2.93,2.67-1.97,.4-3.49-1.05-4.71-2.27-.71-.56-1.16-.76-1.93-.89l-.1-.02-5.09-1.06c-1.91-.41-3.49,2.1-4.08,3.19-1.96,3.91-2.9,8.87-3.81,13.65-.27,1.42-.54,2.81-.82,4.14-1.7,7-2.98,14.29-4.23,21.34-.73,3.64-1.16,7.26-1.62,11.08-.33,2.74-.67,5.58-1.13,8.4-.09,.61-.18,1.25-.27,1.88-.53,3.71-1.07,7.54-2.59,11.91l-2.55,7.34-2.21-7.45c-1.72-5.82-2.81-10.83-3.86-15.67-1.39-5.65-2.83-11.65-4.29-17.73-2.47-10.32-5.03-21-7.57-30.75l-.03-.11c-.56-2.6-1.3-5.31-2.95-7.51-1.18-1.53-2.17-3.12-3.05-4.71l-.27,1.24-1.5,.38c-1.81,.45-3.51-.31-4.33-1.95l-.12-.28c-.67-1.87-2.33-2.6-4.44-3.37l-.12-.05c-1.91-.8-2.38-.82-2.49-.79-.34,.09-1.28,1.04-2.2,1.95-.04,.05-.16,.3-.24,.48-.41,.84-1.09,2.26-2.87,3.02l-.95,.41-.96-.38c-1.73-.69-3.43-.76-5.18-.2-.49,.22-.69,.37-.75,.44,0,.02,0,.05,.01,.1,.22,1.57,.45,3.42,.23,5.17-.1,5.45-.05,11.47,0,17.29,.05,5.86,.11,11.92,0,17.36-.48,17.15-.06,32.11,1.26,45.75,.92,8.07,1.28,15.47,1.07,22.59l-.42,24.49,.47,8.71,.46-.23,1.14,.61c2.05,1.09,2.22,.97,3.09-.22,.15-.29,.21-.63,.07-1.33l-.05-.42c-.26-8.57-.12-15.41,.43-21.52,.39-3.96-.2-7.93-.83-12.13-.81-5.54-1.26-11.25-1.7-16.78-.14-1.81-.29-3.63-.44-5.44-.37-4.94-.46-10.03-.54-14.95-.06-3.65-.13-7.42-.31-11.02-.09-2.17,0-4.26,.07-6.28,.12-3.11,.23-6.04-.25-8.92-.5-2.48-.12-4.91,.21-7.05,.29-1.9,.57-3.7,.23-5.39l4.76-1.45c1.13,2.7,1.79,5.15,2.44,7.52,1.75,5.96,3.38,12.14,4.96,18.12l.99,3.75c4.01,14.04,9.18,27.69,13.7,39.19,1.53,3.93,3.67,6.72,6.37,8.31,.46,.25,.88,.45,1.24,.63,1.45,.7,2.34,1.2,3.9,3.15,.45,.44,2.8,1,6.58,.6-.19-.34-.4-.65-.55-.78-1.85-.08-2.85-.88-3.37-1.57-1.23-1.62-.66-3.62-.44-4.37l.45-1.56,1.61-.23c1.78-.26,3.25,.37,4.33,.83,.27,.12,.54,.23,.81,.33,.24-.3,.48-.6,.72-.88,1.43-1.73,1.91-2.46,1.49-3.7-1.32-3.27-.64-6.39-.04-9.14,.22-1,.42-1.94,.53-2.85,.09-1.07,.26-2.16,.42-3.2,.21-1.32,.41-2.56,.41-3.72,0-9.62,1.9-19,3.74-28.08,.33-1.62,.66-3.24,.97-4.86,.69-3.47,1.81-6.91,2.89-10.24,.63-1.93,1.28-3.93,1.82-5.86l.1-.35c.64-2.36,1.37-5.04,3.2-7.79l2.71-4.06Zm-22.3,86.31h0Zm38.47-107.34h0Zm-2.08,62.78l-.46-10.52c-.06-1.42-.33-2.8-.62-4.25-.62-3.12-1.33-6.66,.41-10.64l1.62-3.72,2.6,3.11c2.99,3.58,2.87,11.77,.78,16.42l-4.32,9.6Z"/></g></g></svg>